<svg width="110" height="139" viewBox="0 0 110 139" fill="none" xmlns="http://www.w3.org/2000/svg">
<path d="M81.7055 98.2263L79.0513 96.5396L78.6492 99.6586C76.8495 113.617 64.8301 124.495 50.4094 124.495H33.8533C18.1978 124.495 5.38047 111.678 5.38047 96.0223V63.6803C5.38047 62.1362 6.63704 60.8614 8.17458 60.8316C30.8123 62.2705 53.4504 62.2705 76.0881 60.8316C77.6257 60.8614 78.8823 62.1362 78.8823 63.6803V68.3899V71.9633L81.9281 70.0947C84.4452 68.5505 87.4051 67.6593 90.5793 67.6593C99.731 67.6593 107.15 75.0783 107.15 84.23C107.15 93.3818 99.731 100.801 90.5793 100.801C87.3113 100.801 84.2701 99.8561 81.7055 98.2263ZM79.3514 74.7989L78.8823 75.3569V76.0859V92.3741V93.1031L79.3514 93.6611C82.038 96.8566 86.0713 98.8938 90.5793 98.8938C98.6779 98.8938 105.243 92.3286 105.243 84.23C105.243 76.1314 98.6779 69.5662 90.5793 69.5662C86.0713 69.5662 82.038 71.6034 79.3514 74.7989ZM71.7937 136.696H12.4691C10.2855 136.696 8.19023 135.835 6.6385 134.298L2.78352 130.482H81.4792L77.6242 134.298C76.0725 135.835 73.9772 136.696 71.7937 136.696Z" stroke="#670000" stroke-width="4"/>
<mask id="path-2-inside-1_1_52" fill="white">
<path d="M21.3594 59.0395C21.3594 59.0395 21.3995 58.9944 21.477 58.907C21.5157 58.8633 21.5639 58.8091 21.6211 58.7446C21.6775 58.6793 21.7384 58.6016 21.8095 58.5167C22.088 58.1723 22.4789 57.651 22.8666 56.9461C23.2505 56.2396 23.6324 55.3472 23.8801 54.2946C24.0001 53.7679 24.0989 53.2063 24.1376 52.6136C24.1587 52.3177 24.1662 52.0152 24.1658 51.708C24.1578 51.4004 24.1438 51.0881 24.1046 50.7732C24.0714 50.4581 24.015 50.1416 23.9518 49.824C23.8759 49.5087 23.8013 49.1898 23.6911 48.8784C23.6671 48.7995 23.6386 48.722 23.6084 48.6449C23.5793 48.5677 23.5501 48.4902 23.5208 48.4123C23.4546 48.26 23.3951 48.1045 23.3192 47.9555C23.2509 47.8032 23.1679 47.6574 23.0902 47.509L23.0756 47.4811C23.0815 47.4942 23.0519 47.4322 23.0871 47.5069L23.0776 47.4906L23.0394 47.425L22.963 47.2936C22.9119 47.2058 22.8606 47.1178 22.8092 47.0294L22.7709 46.9644L22.7355 46.914L22.6651 46.813C22.6191 46.7455 22.5729 46.6778 22.5265 46.6099L22.4922 46.5586L22.4513 46.5031L22.3695 46.392C22.3151 46.3179 22.2606 46.2436 22.206 46.169C22.094 46.0204 21.9709 45.8731 21.8538 45.724C21.7327 45.5748 21.6032 45.4259 21.478 45.2758C20.9595 44.6773 20.3794 44.0686 19.7668 43.4194C19.1547 42.7701 18.5123 42.0772 17.8836 41.298L17.6492 41.0033L17.4193 40.6947C17.3432 40.5905 17.265 40.4899 17.1906 40.3818L16.9682 40.0552L16.8572 39.8911L16.8296 39.8499L16.7787 39.7658L16.7336 39.6913L16.553 39.3929L16.4625 39.2434C16.4482 39.2211 16.431 39.1892 16.4137 39.1569L16.3624 39.0619L16.1589 38.6799L16.058 38.4878C16.0268 38.4251 16 38.3651 15.9708 38.3034L15.8012 37.9343L15.7174 37.7489L15.642 37.5602L15.4921 37.1816C15.44 37.0559 15.3968 36.9273 15.3535 36.7984L15.2231 36.4118C15.1377 36.1533 15.0735 35.8885 14.999 35.6262C14.726 34.5705 14.5712 33.4811 14.5364 32.386C14.5059 31.291 14.5894 30.1898 14.8035 29.1135C14.9095 28.5734 15.0426 28.0467 15.213 27.5172L15.3251 27.177L15.4707 26.7762L15.5444 26.5771L15.6189 26.3941L15.7699 26.0297C15.9815 25.5538 16.2007 25.0869 16.4359 24.644C16.6699 24.1974 16.9161 23.7727 17.1616 23.3551C17.6596 22.5283 18.1682 21.7532 18.6627 21.013C18.9059 20.6476 19.1471 20.2852 19.386 19.9263C19.4445 19.8375 19.5029 19.7489 19.5611 19.6605C19.6177 19.5727 19.6742 19.4851 19.7305 19.3977C19.7884 19.308 19.8462 19.2186 19.9038 19.1294C19.9572 19.045 20.0105 18.9609 20.0636 18.8769C20.1711 18.7111 20.2731 18.5349 20.3775 18.3655C20.4785 18.1946 20.5788 18.0247 20.6786 17.8558C20.7724 17.6861 20.869 17.5175 20.9594 17.3491C21.0452 17.1801 21.1411 17.0139 21.222 16.8464C21.897 15.5112 22.3431 14.2067 22.4932 12.9685C22.5188 12.8133 22.5265 12.6604 22.5381 12.5079C22.5438 12.4373 22.5494 12.367 22.555 12.2972C22.5556 12.2126 22.5563 12.1285 22.5569 12.0449C22.5566 11.9794 22.5564 11.9142 22.5561 11.8495C22.5522 11.7776 22.5483 11.7061 22.5444 11.6351C22.5319 11.493 22.5214 11.351 22.5026 11.2109C22.4667 10.9307 22.4128 10.657 22.3448 10.3929C22.2757 10.129 22.1898 9.87645 22.0993 9.63217C21.9157 9.14391 21.6767 8.71123 21.426 8.32632C21.1705 7.94517 20.8922 7.61927 20.6116 7.35082C20.0476 6.81503 19.4816 6.50662 19.075 6.34293C18.9737 6.2991 18.8816 6.26748 18.8014 6.23934C18.7215 6.20933 18.6529 6.18793 18.5971 6.17308C18.4849 6.14085 18.427 6.12422 18.427 6.12422C18.427 6.12422 18.4873 6.11967 18.604 6.11088C18.6629 6.1053 18.736 6.1014 18.8232 6.10174C18.9109 6.09916 19.0127 6.09969 19.1277 6.10898C19.359 6.12055 19.6461 6.15696 19.978 6.24337C20.3109 6.32678 20.6878 6.46327 21.0877 6.67173C21.8877 7.08423 22.7713 7.80672 23.5014 8.87216C23.8693 9.40261 24.1874 10.0216 24.4383 10.7186C24.5015 10.8927 24.5578 11.0727 24.6084 11.2574C24.6319 11.3505 24.6555 11.4442 24.6792 11.5385C24.7 11.6409 24.721 11.7438 24.742 11.8474C24.7578 11.9335 24.7736 12.0201 24.7896 12.1072L24.7954 12.1392C24.7948 12.1241 24.7995 12.1775 24.7997 12.1789L24.8019 12.197L24.8107 12.2697L24.8282 12.4161C24.8514 12.612 24.8775 12.8114 24.8848 13.0122C24.937 13.8179 24.8871 14.6609 24.7485 15.5073C24.6101 16.3543 24.3838 17.2048 24.0927 18.0433C23.8019 18.8843 23.4496 19.7073 23.0507 20.5257C23 20.6292 22.9492 20.7329 22.8982 20.837C22.8491 20.9349 22.7999 21.0331 22.7506 21.1315C22.6989 21.2318 22.647 21.3323 22.5951 21.433C22.5427 21.532 22.4903 21.6313 22.4377 21.7309C22.2273 22.1292 22.0142 22.5223 21.7975 22.9141C21.3687 23.6966 20.9371 24.4691 20.539 25.2413C20.3423 25.6261 20.1479 26.0116 19.9744 26.3972C19.792 26.7817 19.634 27.1667 19.4824 27.5522L19.3774 27.8413L19.3237 27.9855L19.2802 28.1181L19.1922 28.3818L19.0942 28.715L19.0449 28.8846L19.0325 28.927C19.0541 28.8555 19.0361 28.9175 19.0398 28.9062L19.0356 28.9243L19.0188 28.9965L18.9497 29.2848L18.9139 29.4287C18.9031 29.4769 18.8954 29.5261 18.8859 29.5748L18.8305 29.8674C18.6952 30.6505 18.6342 31.4542 18.6608 32.2579C18.681 33.0618 18.7921 33.8643 18.9733 34.6451C19.0258 34.8383 19.0673 35.0349 19.1261 35.2257L19.2128 35.5125C19.241 35.6083 19.2688 35.7042 19.3049 35.7969L19.4057 36.0778L19.4555 36.2184L19.513 36.3554L19.6272 36.6297L19.6831 36.7659L19.7405 36.8868L19.8531 37.1299L19.8808 37.191C19.8895 37.2108 19.8984 37.231 19.9142 37.2586L19.9978 37.412L20.1648 37.7182L20.2065 37.7946L20.2169 37.8137C20.2448 37.8614 20.1907 37.7705 20.1998 37.7855L20.2193 37.8174L20.2963 37.9457L20.4494 38.2028C20.5008 38.2885 20.5602 38.3734 20.6149 38.4588L20.7825 38.7146L20.9625 38.9695C21.4396 39.6523 21.9813 40.3309 22.533 41.029C23.0849 41.7267 23.6513 42.443 24.1754 43.2055C24.3052 43.3997 24.4357 43.5886 24.5615 43.7838C24.6838 43.9843 24.8082 44.1783 24.9251 44.3803C24.9825 44.4826 25.0398 44.5846 25.0968 44.6862L25.1818 44.8383L25.2241 44.9142L25.2667 44.9977C25.3223 45.1097 25.3778 45.2212 25.4331 45.3324L25.5145 45.499L25.5549 45.582L25.5853 45.6539C25.6706 45.8593 25.7552 46.0634 25.8393 46.266C25.9213 46.4869 26.0005 46.7063 26.0647 46.928C26.1362 47.1474 26.1879 47.3698 26.2444 47.588C26.2702 47.6977 26.2915 47.8078 26.3138 47.917C26.3368 48.0261 26.3575 48.1349 26.3731 48.2441C26.4496 48.6782 26.4846 49.1077 26.5071 49.5265C26.518 49.9459 26.5211 50.3552 26.485 50.7528C26.3715 52.3451 25.9211 53.7291 25.3674 54.8467C24.8082 55.9668 24.1388 56.8227 23.5251 57.4424C23.216 57.7515 22.9271 58.0091 22.659 58.2115C22.593 58.2625 22.5294 58.3117 22.4684 58.3589C22.4051 58.4032 22.3444 58.4456 22.2864 58.4862C22.2284 58.526 22.173 58.564 22.1202 58.6001C22.0657 58.6343 22.014 58.6666 21.9651 58.6972C21.7721 58.8223 21.6188 58.9007 21.5155 58.9558C21.4126 59.011 21.3594 59.0395 21.3594 59.0395Z"/>
</mask>
<path d="M21.3594 59.0395C21.3594 59.0395 21.3995 58.9944 21.477 58.907C21.5157 58.8633 21.5639 58.8091 21.6211 58.7446C21.6775 58.6793 21.7384 58.6016 21.8095 58.5167C22.088 58.1723 22.4789 57.651 22.8666 56.9461C23.2505 56.2396 23.6324 55.3472 23.8801 54.2946C24.0001 53.7679 24.0989 53.2063 24.1376 52.6136C24.1587 52.3177 24.1662 52.0152 24.1658 51.708C24.1578 51.4004 24.1438 51.0881 24.1046 50.7732C24.0714 50.4581 24.015 50.1416 23.9518 49.824C23.8759 49.5087 23.8013 49.1898 23.6911 48.8784C23.6671 48.7995 23.6386 48.722 23.6084 48.6449C23.5793 48.5677 23.5501 48.4902 23.5208 48.4123C23.4546 48.26 23.3951 48.1045 23.3192 47.9555C23.2509 47.8032 23.1679 47.6574 23.0902 47.509L23.0756 47.4811C23.0815 47.4942 23.0519 47.4322 23.0871 47.5069L23.0776 47.4906L23.0394 47.425L22.963 47.2936C22.9119 47.2058 22.8606 47.1178 22.8092 47.0294L22.7709 46.9644L22.7355 46.914L22.6651 46.813C22.6191 46.7455 22.5729 46.6778 22.5265 46.6099L22.4922 46.5586L22.4513 46.5031L22.3695 46.392C22.3151 46.3179 22.2606 46.2436 22.206 46.169C22.094 46.0204 21.9709 45.8731 21.8538 45.724C21.7327 45.5748 21.6032 45.4259 21.478 45.2758C20.9595 44.6773 20.3794 44.0686 19.7668 43.4194C19.1547 42.7701 18.5123 42.0772 17.8836 41.298L17.6492 41.0033L17.4193 40.6947C17.3432 40.5905 17.265 40.4899 17.1906 40.3818L16.9682 40.0552L16.8572 39.8911L16.8296 39.8499L16.7787 39.7658L16.7336 39.6913L16.553 39.3929L16.4625 39.2434C16.4482 39.2211 16.431 39.1892 16.4137 39.1569L16.3624 39.0619L16.1589 38.6799L16.058 38.4878C16.0268 38.4251 16 38.3651 15.9708 38.3034L15.8012 37.9343L15.7174 37.7489L15.642 37.5602L15.4921 37.1816C15.44 37.0559 15.3968 36.9273 15.3535 36.7984L15.2231 36.4118C15.1377 36.1533 15.0735 35.8885 14.999 35.6262C14.726 34.5705 14.5712 33.4811 14.5364 32.386C14.5059 31.291 14.5894 30.1898 14.8035 29.1135C14.9095 28.5734 15.0426 28.0467 15.213 27.5172L15.3251 27.177L15.4707 26.7762L15.5444 26.5771L15.6189 26.3941L15.7699 26.0297C15.9815 25.5538 16.2007 25.0869 16.4359 24.644C16.6699 24.1974 16.9161 23.7727 17.1616 23.3551C17.6596 22.5283 18.1682 21.7532 18.6627 21.013C18.9059 20.6476 19.1471 20.2852 19.386 19.9263C19.4445 19.8375 19.5029 19.7489 19.5611 19.6605C19.6177 19.5727 19.6742 19.4851 19.7305 19.3977C19.7884 19.308 19.8462 19.2186 19.9038 19.1294C19.9572 19.045 20.0105 18.9609 20.0636 18.8769C20.1711 18.7111 20.2731 18.5349 20.3775 18.3655C20.4785 18.1946 20.5788 18.0247 20.6786 17.8558C20.7724 17.6861 20.869 17.5175 20.9594 17.3491C21.0452 17.1801 21.1411 17.0139 21.222 16.8464C21.897 15.5112 22.3431 14.2067 22.4932 12.9685C22.5188 12.8133 22.5265 12.6604 22.5381 12.5079C22.5438 12.4373 22.5494 12.367 22.555 12.2972C22.5556 12.2126 22.5563 12.1285 22.5569 12.0449C22.5566 11.9794 22.5564 11.9142 22.5561 11.8495C22.5522 11.7776 22.5483 11.7061 22.5444 11.6351C22.5319 11.493 22.5214 11.351 22.5026 11.2109C22.4667 10.9307 22.4128 10.657 22.3448 10.3929C22.2757 10.129 22.1898 9.87645 22.0993 9.63217C21.9157 9.14391 21.6767 8.71123 21.426 8.32632C21.1705 7.94517 20.8922 7.61927 20.6116 7.35082C20.0476 6.81503 19.4816 6.50662 19.075 6.34293C18.9737 6.2991 18.8816 6.26748 18.8014 6.23934C18.7215 6.20933 18.6529 6.18793 18.5971 6.17308C18.4849 6.14085 18.427 6.12422 18.427 6.12422C18.427 6.12422 18.4873 6.11967 18.604 6.11088C18.6629 6.1053 18.736 6.1014 18.8232 6.10174C18.9109 6.09916 19.0127 6.09969 19.1277 6.10898C19.359 6.12055 19.6461 6.15696 19.978 6.24337C20.3109 6.32678 20.6878 6.46327 21.0877 6.67173C21.8877 7.08423 22.7713 7.80672 23.5014 8.87216C23.8693 9.40261 24.1874 10.0216 24.4383 10.7186C24.5015 10.8927 24.5578 11.0727 24.6084 11.2574C24.6319 11.3505 24.6555 11.4442 24.6792 11.5385C24.7 11.6409 24.721 11.7438 24.742 11.8474C24.7578 11.9335 24.7736 12.0201 24.7896 12.1072L24.7954 12.1392C24.7948 12.1241 24.7995 12.1775 24.7997 12.1789L24.8019 12.197L24.8107 12.2697L24.8282 12.4161C24.8514 12.612 24.8775 12.8114 24.8848 13.0122C24.937 13.8179 24.8871 14.6609 24.7485 15.5073C24.6101 16.3543 24.3838 17.2048 24.0927 18.0433C23.8019 18.8843 23.4496 19.7073 23.0507 20.5257C23 20.6292 22.9492 20.7329 22.8982 20.837C22.8491 20.9349 22.7999 21.0331 22.7506 21.1315C22.6989 21.2318 22.647 21.3323 22.5951 21.433C22.5427 21.532 22.4903 21.6313 22.4377 21.7309C22.2273 22.1292 22.0142 22.5223 21.7975 22.9141C21.3687 23.6966 20.9371 24.4691 20.539 25.2413C20.3423 25.6261 20.1479 26.0116 19.9744 26.3972C19.792 26.7817 19.634 27.1667 19.4824 27.5522L19.3774 27.8413L19.3237 27.9855L19.2802 28.1181L19.1922 28.3818L19.0942 28.715L19.0449 28.8846L19.0325 28.927C19.0541 28.8555 19.0361 28.9175 19.0398 28.9062L19.0356 28.9243L19.0188 28.9965L18.9497 29.2848L18.9139 29.4287C18.9031 29.4769 18.8954 29.5261 18.8859 29.5748L18.8305 29.8674C18.6952 30.6505 18.6342 31.4542 18.6608 32.2579C18.681 33.0618 18.7921 33.8643 18.9733 34.6451C19.0258 34.8383 19.0673 35.0349 19.1261 35.2257L19.2128 35.5125C19.241 35.6083 19.2688 35.7042 19.3049 35.7969L19.4057 36.0778L19.4555 36.2184L19.513 36.3554L19.6272 36.6297L19.6831 36.7659L19.7405 36.8868L19.8531 37.1299L19.8808 37.191C19.8895 37.2108 19.8984 37.231 19.9142 37.2586L19.9978 37.412L20.1648 37.7182L20.2065 37.7946L20.2169 37.8137C20.2448 37.8614 20.1907 37.7705 20.1998 37.7855L20.2193 37.8174L20.2963 37.9457L20.4494 38.2028C20.5008 38.2885 20.5602 38.3734 20.6149 38.4588L20.7825 38.7146L20.9625 38.9695C21.4396 39.6523 21.9813 40.3309 22.533 41.029C23.0849 41.7267 23.6513 42.443 24.1754 43.2055C24.3052 43.3997 24.4357 43.5886 24.5615 43.7838C24.6838 43.9843 24.8082 44.1783 24.9251 44.3803C24.9825 44.4826 25.0398 44.5846 25.0968 44.6862L25.1818 44.8383L25.2241 44.9142L25.2667 44.9977C25.3223 45.1097 25.3778 45.2212 25.4331 45.3324L25.5145 45.499L25.5549 45.582L25.5853 45.6539C25.6706 45.8593 25.7552 46.0634 25.8393 46.266C25.9213 46.4869 26.0005 46.7063 26.0647 46.928C26.1362 47.1474 26.1879 47.3698 26.2444 47.588C26.2702 47.6977 26.2915 47.8078 26.3138 47.917C26.3368 48.0261 26.3575 48.1349 26.3731 48.2441C26.4496 48.6782 26.4846 49.1077 26.5071 49.5265C26.518 49.9459 26.5211 50.3552 26.485 50.7528C26.3715 52.3451 25.9211 53.7291 25.3674 54.8467C24.8082 55.9668 24.1388 56.8227 23.5251 57.4424C23.216 57.7515 22.9271 58.0091 22.659 58.2115C22.593 58.2625 22.5294 58.3117 22.4684 58.3589C22.4051 58.4032 22.3444 58.4456 22.2864 58.4862C22.2284 58.526 22.173 58.564 22.1202 58.6001C22.0657 58.6343 22.014 58.6666 21.9651 58.6972C21.7721 58.8223 21.6188 58.9007 21.5155 58.9558C21.4126 59.011 21.3594 59.0395 21.3594 59.0395Z" stroke="#670000" stroke-width="8" mask="url(#path-2-inside-1_1_52)"/>
<mask id="path-3-inside-2_1_52" fill="white">
<path d="M42.7193 60.5539C42.7193 60.5539 42.6824 60.4811 42.6108 60.34C42.5399 60.1986 42.4313 59.9902 42.2974 59.7151C42.1616 59.4409 41.9955 59.1018 41.8061 58.7005C41.6152 58.2995 41.4004 57.8364 41.1697 57.3119C40.934 56.7892 40.6915 56.2019 40.4358 55.5557C40.1769 54.9104 39.9279 54.1986 39.6801 53.426C39.432 52.6533 39.2096 51.8136 39.0152 50.9107C38.9913 50.7976 38.9673 50.6838 38.9431 50.5693C38.9223 50.4533 38.9013 50.3365 38.8802 50.219C38.8605 50.107 38.8406 49.9942 38.8206 49.8808C38.8033 49.7586 38.7859 49.6356 38.7683 49.5119C38.7513 49.3878 38.7342 49.2631 38.717 49.1376C38.7035 49.0141 38.6899 48.8899 38.6763 48.765C38.6459 48.5152 38.628 48.261 38.6089 48.0036C38.537 46.9738 38.548 45.8853 38.6742 44.7533C38.7083 44.4706 38.7382 44.1841 38.7932 43.8975C38.8188 43.7541 38.8407 43.6093 38.8703 43.4649C38.9016 43.3206 38.9331 43.1757 38.9647 43.0302L39.0129 42.8113L39.0707 42.5932C39.1098 42.4472 39.1489 42.3008 39.1883 42.1538C39.2307 42.0074 39.2798 41.8617 39.3259 41.7147C39.3737 41.568 39.4173 41.4194 39.4748 41.2742C39.584 40.9819 39.6909 40.6855 39.8256 40.3965C39.8925 40.252 39.9511 40.1031 40.0264 39.9608C40.0997 39.8174 40.1733 39.6736 40.2471 39.5293L40.3029 39.421L40.3169 39.3939L40.3552 39.3303L40.3821 39.2838L40.49 39.0974C40.5627 38.9723 40.6357 38.8468 40.7088 38.721C40.8043 38.5765 40.9 38.4315 40.996 38.2861L41.142 38.0681C41.191 37.9941 41.2398 37.9339 41.289 37.866C41.3876 37.7339 41.4864 37.6014 41.5855 37.4685C41.6836 37.3342 41.7935 37.2119 41.8979 37.0826C42.0045 36.956 42.1084 36.8244 42.2211 36.7033C42.3336 36.5815 42.4464 36.4595 42.5594 36.3371C42.6711 36.2126 42.7894 36.0966 42.908 35.9799C43.0266 35.8631 43.1455 35.746 43.2647 35.6287C43.3878 35.5171 43.5111 35.4052 43.6347 35.2931C43.7583 35.1804 43.8834 35.0695 44.0124 34.9649C45.0313 34.103 46.1348 33.3398 47.2808 32.6625C47.8535 32.3196 48.4388 32.0066 49.028 31.6969C49.176 31.6224 49.3241 31.5477 49.4725 31.473L49.7064 31.3566L49.9208 31.2532L50.3511 31.0458L50.8042 30.8338C53.1886 29.7286 55.5652 28.7909 57.7285 27.6652C58.2718 27.3874 58.796 27.0942 59.3067 26.7887L59.6857 26.5561L59.7331 26.5271C59.7273 26.5311 59.7796 26.4977 59.726 26.5324L59.7513 26.5157L59.8527 26.4491L60.0556 26.3165C60.3481 26.1315 60.5406 25.9839 60.7697 25.8256C61.6897 25.1467 62.5556 24.391 63.2791 23.5634C64.7473 21.9141 65.6524 19.9916 65.763 18.0392C65.7904 17.5491 65.7727 17.0548 65.7135 16.5629C65.6529 16.0713 65.5519 15.582 65.4161 15.1011C65.2792 14.6204 65.106 14.1488 64.9062 13.6896C64.7055 13.2306 64.4737 12.7866 64.2242 12.3559C63.7231 11.495 63.1256 10.7066 62.4842 9.99451C62.1637 9.63783 61.8301 9.30155 61.4875 8.98656C61.4014 8.90831 61.317 8.82852 61.2289 8.75429C61.147 8.68357 61.0655 8.61317 60.9845 8.54313C60.7897 8.38907 60.5985 8.23436 60.4096 8.08061C59.7158 7.53452 58.9628 7.03536 58.2387 6.5893C57.5139 6.13711 56.786 5.76243 56.1 5.40407C54.7169 4.70693 53.4579 4.16317 52.4152 3.71996C51.3648 3.28258 50.5395 2.93893 49.9768 2.70461C49.4129 2.4662 49.1122 2.33905 49.1122 2.33905C49.1122 2.33905 49.1931 2.35052 49.3497 2.37274C49.5062 2.39561 49.7394 2.42613 50.0415 2.4737C50.3439 2.52104 50.7174 2.57644 51.1545 2.65324C51.5929 2.72506 52.0949 2.81727 52.6573 2.92671C53.7819 3.14696 55.1453 3.45097 56.6957 3.9246C56.89 3.98188 57.0856 4.04838 57.2847 4.11398C57.4836 4.18028 57.686 4.24699 57.8888 4.3239C58.0925 4.39901 58.2991 4.4752 58.5086 4.55243C58.7166 4.63628 58.9274 4.72127 59.141 4.80737C59.9944 5.16598 60.8629 5.58838 61.7847 6.12329C61.9934 6.24875 62.2039 6.37613 62.4149 6.50701L62.4546 6.53144L62.4744 6.54366L62.5175 6.57361L62.6012 6.62982L62.7693 6.74289C62.8827 6.81738 62.9923 6.89764 63.1039 6.97684C63.5488 7.29564 63.9879 7.64181 64.4174 8.01655C65.2755 8.76716 66.0821 9.64405 66.8136 10.6378C67.1795 11.1348 67.5185 11.6667 67.8284 12.2297C68.139 12.7923 68.4162 13.3888 68.651 14.0165C68.887 14.6436 69.0787 15.3031 69.212 15.9887C69.3462 16.6738 69.4254 17.3851 69.4285 18.1096C69.4254 18.2929 69.4264 18.4677 69.418 18.6596L69.3995 18.956C69.393 19.0537 69.386 19.1626 69.3782 19.2289L69.3553 19.4577L69.3438 19.5722L69.3269 19.6823L69.3156 19.7503C69.2846 19.9317 69.2536 20.1134 69.2225 20.2954C69.1957 20.4791 69.1438 20.6555 69.1016 20.8356C69.0549 21.014 69.0175 21.197 68.9607 21.3723C68.8461 21.7223 68.7421 22.0807 68.5946 22.4181C68.3281 23.1096 67.9803 23.7587 67.6078 24.3908C67.41 24.697 67.2178 25.0115 66.999 25.3012C66.8911 25.4474 66.7879 25.5994 66.6748 25.7409L66.3339 26.1651C66.2219 26.3089 66.1003 26.4415 65.9801 26.5767C65.8587 26.7101 65.7409 26.8489 65.6154 26.9779C65.363 27.2338 65.115 27.4978 64.849 27.738C64.3288 28.2379 63.7756 28.6836 63.2021 29.1224C62.0497 29.984 60.8477 30.6959 59.6275 31.3287C57.1867 32.5902 54.7154 33.5131 52.4437 34.4883L52.0249 34.6672L51.5895 34.8596L51.3719 34.9559L51.1772 35.0452L50.7664 35.2329C50.2256 35.4889 49.6894 35.7465 49.1772 36.0248C48.1419 36.5684 47.1767 37.1686 46.2953 37.8203C45.409 38.4687 44.6363 39.1925 43.9627 39.9593C43.9219 40.0066 43.8738 40.0559 43.8389 40.1012L43.73 40.2376C43.6563 40.3282 43.5828 40.4185 43.5095 40.5086C43.4271 40.6264 43.3449 40.7438 43.263 40.8608L43.1399 41.0375L43.1091 41.0816C43.1151 41.071 43.074 41.1367 43.1187 41.0633L43.1065 41.083L43.0576 41.1618C42.9919 41.2668 42.9265 41.3715 42.8613 41.4758C42.7934 41.5789 42.7404 41.6909 42.6789 41.7974C42.6219 41.9066 42.5535 42.0094 42.5016 42.1212C42.4466 42.2315 42.3918 42.3415 42.3371 42.4512C41.9046 43.3344 41.6145 44.273 41.3903 45.2053C41.1652 46.1396 41.052 47.0795 40.9894 47.9921C40.9748 48.2205 40.9589 48.4471 40.9555 48.6723C40.9521 48.785 40.9487 48.897 40.9454 49.0084C40.9452 49.1175 40.945 49.2259 40.9447 49.3337C40.9447 49.4418 40.9447 49.5493 40.9447 49.6562C40.9489 49.7713 40.9531 49.8857 40.9573 49.9994C40.9593 50.0562 40.9614 50.1129 40.9635 50.1694L40.9659 50.2541L40.9671 50.2964C40.9689 50.317 40.9654 50.2919 40.9662 50.3019L40.9672 50.322C40.9729 50.4298 40.9786 50.5368 40.9843 50.6432C41.0284 51.4955 41.1251 52.3071 41.2268 53.0739C41.4387 54.6067 41.7199 55.9488 41.954 57.057C42.1988 58.168 42.3911 59.0409 42.5223 59.6361C42.6508 60.2347 42.7193 60.5539 42.7193 60.5539Z"/>
</mask>
<path d="M42.7193 60.5539C42.7193 60.5539 42.6824 60.4811 42.6108 60.34C42.5399 60.1986 42.4313 59.9902 42.2974 59.7151C42.1616 59.4409 41.9955 59.1018 41.8061 58.7005C41.6152 58.2995 41.4004 57.8364 41.1697 57.3119C40.934 56.7892 40.6915 56.2019 40.4358 55.5557C40.1769 54.9104 39.9279 54.1986 39.6801 53.426C39.432 52.6533 39.2096 51.8136 39.0152 50.9107C38.9913 50.7976 38.9673 50.6838 38.9431 50.5693C38.9223 50.4533 38.9013 50.3365 38.8802 50.219C38.8605 50.107 38.8406 49.9942 38.8206 49.8808C38.8033 49.7586 38.7859 49.6356 38.7683 49.5119C38.7513 49.3878 38.7342 49.2631 38.717 49.1376C38.7035 49.0141 38.6899 48.8899 38.6763 48.765C38.6459 48.5152 38.628 48.261 38.6089 48.0036C38.537 46.9738 38.548 45.8853 38.6742 44.7533C38.7083 44.4706 38.7382 44.1841 38.7932 43.8975C38.8188 43.7541 38.8407 43.6093 38.8703 43.4649C38.9016 43.3206 38.9331 43.1757 38.9647 43.0302L39.0129 42.8113L39.0707 42.5932C39.1098 42.4472 39.1489 42.3008 39.1883 42.1538C39.2307 42.0074 39.2798 41.8617 39.3259 41.7147C39.3737 41.568 39.4173 41.4194 39.4748 41.2742C39.584 40.9819 39.6909 40.6855 39.8256 40.3965C39.8925 40.252 39.9511 40.1031 40.0264 39.9608C40.0997 39.8174 40.1733 39.6736 40.2471 39.5293L40.3029 39.421L40.3169 39.3939L40.3552 39.3303L40.3821 39.2838L40.49 39.0974C40.5627 38.9723 40.6357 38.8468 40.7088 38.721C40.8043 38.5765 40.9 38.4315 40.996 38.2861L41.142 38.0681C41.191 37.9941 41.2398 37.9339 41.289 37.866C41.3876 37.7339 41.4864 37.6014 41.5855 37.4685C41.6836 37.3342 41.7935 37.2119 41.8979 37.0826C42.0045 36.956 42.1084 36.8244 42.2211 36.7033C42.3336 36.5815 42.4464 36.4595 42.5594 36.3371C42.6711 36.2126 42.7894 36.0966 42.908 35.9799C43.0266 35.8631 43.1455 35.746 43.2647 35.6287C43.3878 35.5171 43.5111 35.4052 43.6347 35.2931C43.7583 35.1804 43.8834 35.0695 44.0124 34.9649C45.0313 34.103 46.1348 33.3398 47.2808 32.6625C47.8535 32.3196 48.4388 32.0066 49.028 31.6969C49.176 31.6224 49.3241 31.5477 49.4725 31.473L49.7064 31.3566L49.9208 31.2532L50.3511 31.0458L50.8042 30.8338C53.1886 29.7286 55.5652 28.7909 57.7285 27.6652C58.2718 27.3874 58.796 27.0942 59.3067 26.7887L59.6857 26.5561L59.7331 26.5271C59.7273 26.5311 59.7796 26.4977 59.726 26.5324L59.7513 26.5157L59.8527 26.4491L60.0556 26.3165C60.3481 26.1315 60.5406 25.9839 60.7697 25.8256C61.6897 25.1467 62.5556 24.391 63.2791 23.5634C64.7473 21.9141 65.6524 19.9916 65.763 18.0392C65.7904 17.5491 65.7727 17.0548 65.7135 16.5629C65.6529 16.0713 65.5519 15.582 65.4161 15.1011C65.2792 14.6204 65.106 14.1488 64.9062 13.6896C64.7055 13.2306 64.4737 12.7866 64.2242 12.3559C63.7231 11.495 63.1256 10.7066 62.4842 9.99451C62.1637 9.63783 61.8301 9.30155 61.4875 8.98656C61.4014 8.90831 61.317 8.82852 61.2289 8.75429C61.147 8.68357 61.0655 8.61317 60.9845 8.54313C60.7897 8.38907 60.5985 8.23436 60.4096 8.08061C59.7158 7.53452 58.9628 7.03536 58.2387 6.5893C57.5139 6.13711 56.786 5.76243 56.1 5.40407C54.7169 4.70693 53.4579 4.16317 52.4152 3.71996C51.3648 3.28258 50.5395 2.93893 49.9768 2.70461C49.4129 2.4662 49.1122 2.33905 49.1122 2.33905C49.1122 2.33905 49.1931 2.35052 49.3497 2.37274C49.5062 2.39561 49.7394 2.42613 50.0415 2.4737C50.3439 2.52104 50.7174 2.57644 51.1545 2.65324C51.5929 2.72506 52.0949 2.81727 52.6573 2.92671C53.7819 3.14696 55.1453 3.45097 56.6957 3.9246C56.89 3.98188 57.0856 4.04838 57.2847 4.11398C57.4836 4.18028 57.686 4.24699 57.8888 4.3239C58.0925 4.39901 58.2991 4.4752 58.5086 4.55243C58.7166 4.63628 58.9274 4.72127 59.141 4.80737C59.9944 5.16598 60.8629 5.58838 61.7847 6.12329C61.9934 6.24875 62.2039 6.37613 62.4149 6.50701L62.4546 6.53144L62.4744 6.54366L62.5175 6.57361L62.6012 6.62982L62.7693 6.74289C62.8827 6.81738 62.9923 6.89764 63.1039 6.97684C63.5488 7.29564 63.9879 7.64181 64.4174 8.01655C65.2755 8.76716 66.0821 9.64405 66.8136 10.6378C67.1795 11.1348 67.5185 11.6667 67.8284 12.2297C68.139 12.7923 68.4162 13.3888 68.651 14.0165C68.887 14.6436 69.0787 15.3031 69.212 15.9887C69.3462 16.6738 69.4254 17.3851 69.4285 18.1096C69.4254 18.2929 69.4264 18.4677 69.418 18.6596L69.3995 18.956C69.393 19.0537 69.386 19.1626 69.3782 19.2289L69.3553 19.4577L69.3438 19.5722L69.3269 19.6823L69.3156 19.7503C69.2846 19.9317 69.2536 20.1134 69.2225 20.2954C69.1957 20.4791 69.1438 20.6555 69.1016 20.8356C69.0549 21.014 69.0175 21.197 68.9607 21.3723C68.8461 21.7223 68.7421 22.0807 68.5946 22.4181C68.3281 23.1096 67.9803 23.7587 67.6078 24.3908C67.41 24.697 67.2178 25.0115 66.999 25.3012C66.8911 25.4474 66.7879 25.5994 66.6748 25.7409L66.3339 26.1651C66.2219 26.3089 66.1003 26.4415 65.9801 26.5767C65.8587 26.7101 65.7409 26.8489 65.6154 26.9779C65.363 27.2338 65.115 27.4978 64.849 27.738C64.3288 28.2379 63.7756 28.6836 63.2021 29.1224C62.0497 29.984 60.8477 30.6959 59.6275 31.3287C57.1867 32.5902 54.7154 33.5131 52.4437 34.4883L52.0249 34.6672L51.5895 34.8596L51.3719 34.9559L51.1772 35.0452L50.7664 35.2329C50.2256 35.4889 49.6894 35.7465 49.1772 36.0248C48.1419 36.5684 47.1767 37.1686 46.2953 37.8203C45.409 38.4687 44.6363 39.1925 43.9627 39.9593C43.9219 40.0066 43.8738 40.0559 43.8389 40.1012L43.73 40.2376C43.6563 40.3282 43.5828 40.4185 43.5095 40.5086C43.4271 40.6264 43.3449 40.7438 43.263 40.8608L43.1399 41.0375L43.1091 41.0816C43.1151 41.071 43.074 41.1367 43.1187 41.0633L43.1065 41.083L43.0576 41.1618C42.9919 41.2668 42.9265 41.3715 42.8613 41.4758C42.7934 41.5789 42.7404 41.6909 42.6789 41.7974C42.6219 41.9066 42.5535 42.0094 42.5016 42.1212C42.4466 42.2315 42.3918 42.3415 42.3371 42.4512C41.9046 43.3344 41.6145 44.273 41.3903 45.2053C41.1652 46.1396 41.052 47.0795 40.9894 47.9921C40.9748 48.2205 40.9589 48.4471 40.9555 48.6723C40.9521 48.785 40.9487 48.897 40.9454 49.0084C40.9452 49.1175 40.945 49.2259 40.9447 49.3337C40.9447 49.4418 40.9447 49.5493 40.9447 49.6562C40.9489 49.7713 40.9531 49.8857 40.9573 49.9994C40.9593 50.0562 40.9614 50.1129 40.9635 50.1694L40.9659 50.2541L40.9671 50.2964C40.9689 50.317 40.9654 50.2919 40.9662 50.3019L40.9672 50.322C40.9729 50.4298 40.9786 50.5368 40.9843 50.6432C41.0284 51.4955 41.1251 52.3071 41.2268 53.0739C41.4387 54.6067 41.7199 55.9488 41.954 57.057C42.1988 58.168 42.3911 59.0409 42.5223 59.6361C42.6508 60.2347 42.7193 60.5539 42.7193 60.5539Z" stroke="#670000" stroke-width="8" mask="url(#path-3-inside-2_1_52)"/>
<mask id="path-4-inside-3_1_52" fill="white">
<path d="M65.8912 59.5157C65.8912 59.5157 65.6006 59.4561 65.0556 59.3445C64.7841 59.2871 64.4521 59.1894 64.0565 59.0818C63.8584 59.0275 63.654 58.9539 63.4306 58.882C63.2088 58.8071 62.9708 58.7304 62.7275 58.6303C61.7404 58.2597 60.5639 57.718 59.3006 56.9255C58.0383 56.134 56.6923 55.0884 55.3882 53.7516C55.2272 53.5831 55.0684 53.4087 54.9084 53.2317C54.8284 53.1431 54.7479 53.054 54.6671 52.9645C54.5901 52.8717 54.5128 52.7784 54.4351 52.6847C54.2807 52.4962 54.1223 52.3072 53.967 52.1127C53.8179 51.913 53.6675 51.7116 53.5158 51.5084C53.3602 51.3072 53.2204 51.0924 53.0771 50.877C53.0056 50.769 52.9337 50.6606 52.8616 50.5518L52.8075 50.47L52.7804 50.429C52.7804 50.429 52.7407 50.3573 52.7515 50.3783L52.7397 50.3586L52.6449 50.201C52.5185 49.9903 52.3912 49.778 52.263 49.5642C52.1339 49.32 52.004 49.0741 51.8731 48.8265C51.736 48.5751 51.6283 48.3302 51.5105 48.0796C51.4528 47.9544 51.3949 47.8287 51.3368 47.7026C51.2771 47.5771 51.23 47.4464 51.1757 47.3176C51.0725 47.0583 50.9603 46.7996 50.8633 46.5339C50.7704 46.2665 50.6769 45.9976 50.5829 45.7271C50.2304 44.6372 49.9536 43.4943 49.7647 42.3138C49.5711 41.1335 49.4872 39.9138 49.4962 38.6772C49.5093 37.4406 49.6217 36.1858 49.8489 34.936L49.9426 34.4682L50.0433 33.9839L50.1461 33.5569L50.2656 33.0932C50.421 32.5019 50.5838 31.9369 50.7337 31.3939C51.0308 30.3077 51.2663 29.305 51.312 28.3923L51.3166 28.2232L51.3197 28.1387L51.3214 28.0964C51.3222 28.1303 51.3207 27.9909 51.3234 28.1669L51.3225 28.1394L51.307 27.6991C51.306 27.3586 51.2618 27.2271 51.2432 27.029L51.2354 26.9584C51.2329 26.9349 51.2318 26.9125 51.224 26.883L51.1877 26.7163C51.1636 26.6051 51.1415 26.4936 51.12 26.3819C51.0957 26.2704 51.0565 26.1604 51.0265 26.0493C50.9923 25.9387 50.9682 25.8265 50.9275 25.7166C50.6224 24.8347 50.1646 23.9683 49.5941 23.151C49.3141 22.7395 48.9963 22.3451 48.6668 21.9599C48.5039 21.7657 48.3248 21.582 48.1558 21.3921C47.9789 21.2078 47.7955 21.0285 47.6168 20.8463C47.4288 20.671 47.2412 20.4963 47.0543 20.3221C46.8593 20.155 46.6704 19.9823 46.4724 19.8199C46.3729 19.7392 46.2734 19.6586 46.1743 19.5782L46.026 19.4568L46.0075 19.4416C45.9976 19.4337 46.0298 19.4567 46.0063 19.4394L45.9649 19.4077L45.8822 19.3443C45.7719 19.2598 45.6619 19.1755 45.5521 19.0913L45.3885 18.9663L45.2346 18.8535C45.0286 18.7025 44.8304 18.554 44.6114 18.4004C44.3975 18.2477 44.1854 18.095 43.9672 17.946C43.7512 17.7962 43.5357 17.6471 43.3163 17.5C43.0976 17.3515 42.8801 17.2036 42.6637 17.0566C41.7915 16.4696 40.9202 15.8861 40.0756 15.2872C38.3842 14.0927 36.8102 12.8185 35.5393 11.4191C34.8973 10.7018 34.3572 9.98076 33.9 9.24906C33.4492 8.51594 33.0744 7.79057 32.7932 7.079C32.5114 6.3684 32.3055 5.6815 32.1789 5.03503C32.0537 4.38793 31.9948 3.78562 31.995 3.24368C31.9867 2.1577 32.1893 1.33196 32.3635 0.798163C32.4524 0.530228 32.533 0.331146 32.5931 0.199549C32.6512 0.0679266 32.6811 0 32.6811 0C32.6811 0 32.6717 0.0735784 32.6535 0.216132C32.6323 0.357239 32.6163 0.569765 32.5993 0.842138C32.5959 0.9793 32.5854 1.13043 32.5917 1.29783C32.5945 1.38142 32.5912 1.46777 32.5965 1.55835C32.6016 1.64848 32.607 1.74233 32.6125 1.83982C32.6452 2.22849 32.7052 2.66965 32.819 3.1496C32.9355 3.6289 33.0971 4.14778 33.3275 4.68809C33.5646 5.22601 33.849 5.79179 34.2159 6.35822C34.3984 6.64159 34.5978 6.92643 34.8096 7.21323C35.0262 7.49751 35.2581 7.7819 35.5073 8.06336C35.7602 8.34203 36.0224 8.62338 36.3039 8.89769C36.5837 9.17005 36.8899 9.44271 37.1966 9.6942C37.8278 10.2156 38.5378 10.7243 39.2998 11.2105C40.062 11.6996 40.8779 12.178 41.7396 12.6596C42.6187 13.1428 43.5218 13.6392 44.4449 14.1466C44.9134 14.4047 45.3901 14.6723 45.8705 14.955C46.3528 15.2358 46.8327 15.5243 47.338 15.8507L47.526 15.9705L47.7001 16.0857C47.8153 16.1622 47.9308 16.2389 48.0465 16.3158L48.1333 16.3735L48.1767 16.4023C48.1674 16.3951 48.2137 16.4282 48.2175 16.431L48.2406 16.4473L48.4248 16.5787C48.5474 16.6669 48.6703 16.7553 48.7934 16.8439C49.0386 17.0228 49.2769 17.2148 49.5202 17.4015C49.7589 17.595 49.9949 17.7952 50.2318 17.9955C50.4614 18.2064 50.6944 18.4147 50.9226 18.6314C51.1451 18.8559 51.3747 19.0729 51.5923 19.3074C52.0265 19.7765 52.4505 20.2661 52.8428 20.7958C53.6277 21.8505 54.3192 23.0396 54.7956 24.3663C54.8577 24.5303 54.904 24.7032 54.9579 24.8718C55.0081 25.0423 55.0655 25.2097 55.1078 25.3835L55.2239 25.9093L55.2795 26.173C55.2897 26.2147 55.2959 26.2654 55.3026 26.3147L55.3224 26.4624C55.3484 26.6596 55.3724 26.8572 55.3945 27.0549C55.4231 27.2756 55.4189 27.3904 55.4272 27.5443L55.4449 27.9845L55.446 28.0121C55.449 28.2064 55.4464 28.0854 55.4468 28.1376L55.4451 28.2054L55.4415 28.3411L55.4325 28.6125C55.349 30.0515 55.0117 31.3459 54.6726 32.5084C54.5062 33.0658 54.3402 33.6221 54.1747 34.1767L54.0659 34.5555L53.9538 34.973C53.8947 35.2222 53.8358 35.471 53.7769 35.7192C53.557 36.7393 53.4161 37.7724 53.3544 38.8014C53.2901 39.8302 53.2997 40.8563 53.3924 41.8609C53.4817 42.866 53.6408 43.8501 53.8554 44.8035C53.915 45.0405 53.9743 45.2762 54.0333 45.5106C54.0932 45.745 54.1681 45.9733 54.2338 46.2038C54.2693 46.318 54.2978 46.4347 54.3387 46.5463C54.3778 46.6586 54.4168 46.7706 54.4557 46.8822C54.5339 47.1042 54.6051 47.3357 54.6905 47.538C54.7727 47.7481 54.8544 47.9568 54.9355 48.164C55.0382 48.3912 55.1403 48.6167 55.2416 48.8406L55.3172 49.0082L55.3266 49.0291C55.3447 49.0635 55.3126 49.0059 55.3195 49.0187L55.3387 49.0566L55.3771 49.1323C55.4282 49.2334 55.4791 49.3341 55.5299 49.4344C55.633 49.6343 55.7258 49.8389 55.8387 50.03C55.9469 50.2244 56.0542 50.4173 56.1606 50.6084C56.2759 50.7949 56.3902 50.9797 56.5035 51.1628C56.5606 51.2544 56.6175 51.3456 56.6741 51.4364C56.7348 51.5244 56.7953 51.612 56.8554 51.6992C56.9752 51.8749 57.0939 52.0488 57.2113 52.2209C58.1889 53.573 59.241 54.7206 60.2585 55.661C61.2759 56.6035 62.2608 57.3346 63.1044 57.8968C63.3118 58.0447 63.5177 58.1677 63.7106 58.2869C63.9037 58.405 64.0821 58.5267 64.2538 58.6231C64.4262 58.721 64.5856 58.8116 64.7317 58.8946C64.8786 58.9784 65.0103 59.0593 65.1356 59.1199C65.6284 59.378 65.8912 59.5157 65.8912 59.5157Z"/>
</mask>
<path d="M65.8912 59.5157C65.8912 59.5157 65.6006 59.4561 65.0556 59.3445C64.7841 59.2871 64.4521 59.1894 64.0565 59.0818C63.8584 59.0275 63.654 58.9539 63.4306 58.882C63.2088 58.8071 62.9708 58.7304 62.7275 58.6303C61.7404 58.2597 60.5639 57.718 59.3006 56.9255C58.0383 56.134 56.6923 55.0884 55.3882 53.7516C55.2272 53.5831 55.0684 53.4087 54.9084 53.2317C54.8284 53.1431 54.7479 53.054 54.6671 52.9645C54.5901 52.8717 54.5128 52.7784 54.4351 52.6847C54.2807 52.4962 54.1223 52.3072 53.967 52.1127C53.8179 51.913 53.6675 51.7116 53.5158 51.5084C53.3602 51.3072 53.2204 51.0924 53.0771 50.877C53.0056 50.769 52.9337 50.6606 52.8616 50.5518L52.8075 50.47L52.7804 50.429C52.7804 50.429 52.7407 50.3573 52.7515 50.3783L52.7397 50.3586L52.6449 50.201C52.5185 49.9903 52.3912 49.778 52.263 49.5642C52.1339 49.32 52.004 49.0741 51.8731 48.8265C51.736 48.5751 51.6283 48.3302 51.5105 48.0796C51.4528 47.9544 51.3949 47.8287 51.3368 47.7026C51.2771 47.5771 51.23 47.4464 51.1757 47.3176C51.0725 47.0583 50.9603 46.7996 50.8633 46.5339C50.7704 46.2665 50.6769 45.9976 50.5829 45.7271C50.2304 44.6372 49.9536 43.4943 49.7647 42.3138C49.5711 41.1335 49.4872 39.9138 49.4962 38.6772C49.5093 37.4406 49.6217 36.1858 49.8489 34.936L49.9426 34.4682L50.0433 33.9839L50.1461 33.5569L50.2656 33.0932C50.421 32.5019 50.5838 31.9369 50.7337 31.3939C51.0308 30.3077 51.2663 29.305 51.312 28.3923L51.3166 28.2232L51.3197 28.1387L51.3214 28.0964C51.3222 28.1303 51.3207 27.9909 51.3234 28.1669L51.3225 28.1394L51.307 27.6991C51.306 27.3586 51.2618 27.2271 51.2432 27.029L51.2354 26.9584C51.2329 26.9349 51.2318 26.9125 51.224 26.883L51.1877 26.7163C51.1636 26.6051 51.1415 26.4936 51.12 26.3819C51.0957 26.2704 51.0565 26.1604 51.0265 26.0493C50.9923 25.9387 50.9682 25.8265 50.9275 25.7166C50.6224 24.8347 50.1646 23.9683 49.5941 23.151C49.3141 22.7395 48.9963 22.3451 48.6668 21.9599C48.5039 21.7657 48.3248 21.582 48.1558 21.3921C47.9789 21.2078 47.7955 21.0285 47.6168 20.8463C47.4288 20.671 47.2412 20.4963 47.0543 20.3221C46.8593 20.155 46.6704 19.9823 46.4724 19.8199C46.3729 19.7392 46.2734 19.6586 46.1743 19.5782L46.026 19.4568L46.0075 19.4416C45.9976 19.4337 46.0298 19.4567 46.0063 19.4394L45.9649 19.4077L45.8822 19.3443C45.7719 19.2598 45.6619 19.1755 45.5521 19.0913L45.3885 18.9663L45.2346 18.8535C45.0286 18.7025 44.8304 18.554 44.6114 18.4004C44.3975 18.2477 44.1854 18.095 43.9672 17.946C43.7512 17.7962 43.5357 17.6471 43.3163 17.5C43.0976 17.3515 42.8801 17.2036 42.6637 17.0566C41.7915 16.4696 40.9202 15.8861 40.0756 15.2872C38.3842 14.0927 36.8102 12.8185 35.5393 11.4191C34.8973 10.7018 34.3572 9.98076 33.9 9.24906C33.4492 8.51594 33.0744 7.79057 32.7932 7.079C32.5114 6.3684 32.3055 5.6815 32.1789 5.03503C32.0537 4.38793 31.9948 3.78562 31.995 3.24368C31.9867 2.1577 32.1893 1.33196 32.3635 0.798163C32.4524 0.530228 32.533 0.331146 32.5931 0.199549C32.6512 0.0679266 32.6811 0 32.6811 0C32.6811 0 32.6717 0.0735784 32.6535 0.216132C32.6323 0.357239 32.6163 0.569765 32.5993 0.842138C32.5959 0.9793 32.5854 1.13043 32.5917 1.29783C32.5945 1.38142 32.5912 1.46777 32.5965 1.55835C32.6016 1.64848 32.607 1.74233 32.6125 1.83982C32.6452 2.22849 32.7052 2.66965 32.819 3.1496C32.9355 3.6289 33.0971 4.14778 33.3275 4.68809C33.5646 5.22601 33.849 5.79179 34.2159 6.35822C34.3984 6.64159 34.5978 6.92643 34.8096 7.21323C35.0262 7.49751 35.2581 7.7819 35.5073 8.06336C35.7602 8.34203 36.0224 8.62338 36.3039 8.89769C36.5837 9.17005 36.8899 9.44271 37.1966 9.6942C37.8278 10.2156 38.5378 10.7243 39.2998 11.2105C40.062 11.6996 40.8779 12.178 41.7396 12.6596C42.6187 13.1428 43.5218 13.6392 44.4449 14.1466C44.9134 14.4047 45.3901 14.6723 45.8705 14.955C46.3528 15.2358 46.8327 15.5243 47.338 15.8507L47.526 15.9705L47.7001 16.0857C47.8153 16.1622 47.9308 16.2389 48.0465 16.3158L48.1333 16.3735L48.1767 16.4023C48.1674 16.3951 48.2137 16.4282 48.2175 16.431L48.2406 16.4473L48.4248 16.5787C48.5474 16.6669 48.6703 16.7553 48.7934 16.8439C49.0386 17.0228 49.2769 17.2148 49.5202 17.4015C49.7589 17.595 49.9949 17.7952 50.2318 17.9955C50.4614 18.2064 50.6944 18.4147 50.9226 18.6314C51.1451 18.8559 51.3747 19.0729 51.5923 19.3074C52.0265 19.7765 52.4505 20.2661 52.8428 20.7958C53.6277 21.8505 54.3192 23.0396 54.7956 24.3663C54.8577 24.5303 54.904 24.7032 54.9579 24.8718C55.0081 25.0423 55.0655 25.2097 55.1078 25.3835L55.2239 25.9093L55.2795 26.173C55.2897 26.2147 55.2959 26.2654 55.3026 26.3147L55.3224 26.4624C55.3484 26.6596 55.3724 26.8572 55.3945 27.0549C55.4231 27.2756 55.4189 27.3904 55.4272 27.5443L55.4449 27.9845L55.446 28.0121C55.449 28.2064 55.4464 28.0854 55.4468 28.1376L55.4451 28.2054L55.4415 28.3411L55.4325 28.6125C55.349 30.0515 55.0117 31.3459 54.6726 32.5084C54.5062 33.0658 54.3402 33.6221 54.1747 34.1767L54.0659 34.5555L53.9538 34.973C53.8947 35.2222 53.8358 35.471 53.7769 35.7192C53.557 36.7393 53.4161 37.7724 53.3544 38.8014C53.2901 39.8302 53.2997 40.8563 53.3924 41.8609C53.4817 42.866 53.6408 43.8501 53.8554 44.8035C53.915 45.0405 53.9743 45.2762 54.0333 45.5106C54.0932 45.745 54.1681 45.9733 54.2338 46.2038C54.2693 46.318 54.2978 46.4347 54.3387 46.5463C54.3778 46.6586 54.4168 46.7706 54.4557 46.8822C54.5339 47.1042 54.6051 47.3357 54.6905 47.538C54.7727 47.7481 54.8544 47.9568 54.9355 48.164C55.0382 48.3912 55.1403 48.6167 55.2416 48.8406L55.3172 49.0082L55.3266 49.0291C55.3447 49.0635 55.3126 49.0059 55.3195 49.0187L55.3387 49.0566L55.3771 49.1323C55.4282 49.2334 55.4791 49.3341 55.5299 49.4344C55.633 49.6343 55.7258 49.8389 55.8387 50.03C55.9469 50.2244 56.0542 50.4173 56.1606 50.6084C56.2759 50.7949 56.3902 50.9797 56.5035 51.1628C56.5606 51.2544 56.6175 51.3456 56.6741 51.4364C56.7348 51.5244 56.7953 51.612 56.8554 51.6992C56.9752 51.8749 57.0939 52.0488 57.2113 52.2209C58.1889 53.573 59.241 54.7206 60.2585 55.661C61.2759 56.6035 62.2608 57.3346 63.1044 57.8968C63.3118 58.0447 63.5177 58.1677 63.7106 58.2869C63.9037 58.405 64.0821 58.5267 64.2538 58.6231C64.4262 58.721 64.5856 58.8116 64.7317 58.8946C64.8786 58.9784 65.0103 59.0593 65.1356 59.1199C65.6284 59.378 65.8912 59.5157 65.8912 59.5157Z" stroke="#670000" stroke-width="8" mask="url(#path-4-inside-3_1_52)"/>
</svg>
