<svg width="110" height="139" viewBox="0 0 110 139" fill="none" xmlns="http://www.w3.org/2000/svg">
<path d="M72.1899 46.9659C71.107 45.5892 69.4518 45.2484 68.0825 46.1183L47.9514 58.8998C47.2622 59.3373 46.7032 60.0473 46.3587 60.9232L36.286 86.5223C35.6008 88.2633 35.8694 90.3663 36.9528 91.7427C38.0379 93.1222 39.6948 93.4586 41.0611 92.5901L61.2063 79.7904C61.8953 79.3527 62.4541 78.6426 62.7986 77.7665L72.857 52.1853C73.5419 50.4445 73.2731 48.3424 72.1899 46.9659ZM56.9616 72.3743L47.4282 78.4316L52.195 66.3173L61.7211 60.2687L56.9616 72.3743Z" fill="#670000"/>
<path d="M54.575 0C24.4824 0 0 31.1105 0 69.35C0 107.589 24.4824 138.7 54.575 138.7C84.6676 138.7 109.15 107.589 109.15 69.35C109.15 31.1105 84.6676 0 54.575 0ZM54.575 129.654C28.4076 129.654 7.11841 102.602 7.11841 69.35C7.11841 36.098 28.4076 9.04557 54.575 9.04557C80.7424 9.04557 102.032 36.0983 102.032 69.35C102.032 102.602 80.7424 129.654 54.575 129.654Z" fill="#670000"/>
<path d="M54.575 18.0914C32.3327 18.0914 14.2371 41.0861 14.2371 69.35C14.2371 97.6139 32.3327 120.609 54.575 120.609C76.8173 120.609 94.913 97.6139 94.913 69.35C94.913 41.0861 76.8173 18.0914 54.575 18.0914ZM58.1343 111.32V107.04C58.1343 104.542 56.5408 102.517 54.575 102.517C52.6095 102.517 51.0157 104.542 51.0157 107.04V111.32C35.5356 109.215 23.2029 93.544 21.5465 73.8729H24.9148C26.8803 73.8729 28.4741 71.848 28.4741 69.35C28.4741 66.8523 26.8806 64.8271 24.9148 64.8271H21.5465C23.2029 45.1561 35.5358 29.4849 51.0157 27.3797V31.6599C51.0157 34.1576 52.6093 36.1828 54.575 36.1828C56.5406 36.1828 58.1343 34.1579 58.1343 31.6599V27.3797C73.6145 29.4849 85.9469 45.1564 87.6036 64.8271H84.2353C82.2697 64.8271 80.6759 66.8521 80.6759 69.35C80.6759 71.8477 82.2695 73.8426 84.2353 73.8426H87.6036C85.9469 93.5136 73.6145 109.215 58.1343 111.32Z" fill="#670000"/>
</svg>
