<svg width="110" height="139" viewBox="0 0 110 139" fill="none" xmlns="http://www.w3.org/2000/svg">
<path d="M105.08 81.4823H104.974C107.238 78.7107 109.226 74.9904 109.148 70.5161C109.042 64.4684 105.169 58.5516 97.6394 52.93C98.5807 50.2905 98.7806 47.6881 98.2281 45.1385C96.0386 35.038 84.2992 31.004 73.5266 28.7615C73.9094 27.574 74.1176 26.3164 74.1176 25.0139C74.1176 20.0848 71.1705 15.7866 66.8358 13.5728C71.1484 5.3973 76.8988 4.49351 79.2118 4.49351C82.1588 4.49351 84.0117 5.08246 85.0837 5.61359C85.9176 6.0267 86.9283 5.96019 87.6797 5.42696C89.079 4.4339 88.8987 2.4265 87.347 1.65571C85.6208 0.797748 82.9975 0 79.2118 0C74.5982 0 70.2712 1.98194 66.6985 5.73132C65.4956 6.9937 63.7572 9.12153 62.2389 12.128C61.5607 12.033 60.8667 11.9827 60.1605 11.9827C54.9264 11.9827 50.3584 14.6881 47.9699 18.6786C47.0956 17.7766 46.1299 16.5966 45.4493 15.2612C45.1631 14.6995 44.6401 14.2738 44.0052 14.0854C43.3702 13.8972 42.6797 13.9628 42.099 14.2672C34.9048 18.0352 29.6521 23.055 26.4862 29.1874C23.7789 34.432 23.2783 39.2637 23.269 42.0733C23.0656 42.147 22.8641 42.2207 22.6758 42.2962C16.447 44.7886 12.8554 49.5335 12.2881 56.0176C12.0616 58.6095 12.3751 60.9745 12.7097 62.5976C7.75288 64.256 4.30563 67.4263 3.06264 71.581C2.08147 74.8607 2.58778 78.419 4.32648 81.4826H2.4065C1.67463 81.4826 0.98255 81.7936 0.525655 82.3277C0.06908 82.8618 -0.102256 83.5607 0.0597753 84.2273L11.9856 133.22C12.771 136.447 15.7944 138.7 19.3383 138.7H88.1475C91.6911 138.7 94.7148 136.447 95.5002 133.22L107.426 84.2273C107.588 83.5607 107.417 82.8618 106.96 82.3277C106.504 81.7933 105.812 81.4823 105.08 81.4823ZM60.1605 16.4762C65.2027 16.4762 69.3048 20.3062 69.3048 25.0139C69.3048 29.7216 65.2027 33.5515 60.1605 33.5515C55.1182 33.5515 51.0161 29.7216 51.0161 25.0139C51.0161 20.3062 55.1186 16.4762 60.1605 16.4762ZM19.3389 134.206C18.0571 134.206 16.9636 133.391 16.6793 132.224L5.42156 85.9758H13.21L21.813 133.1C21.883 133.483 21.9815 133.851 22.1011 134.206H19.3389V134.206ZM27.94 134.206C27.503 134.206 26.7795 133.559 26.5578 132.345L18.0924 85.9758H25.9267L31.6472 132.976C31.6995 133.404 31.7758 133.815 31.8743 134.206H27.94V134.206ZM36.9762 134.206C36.8087 133.952 36.5424 133.397 36.4295 132.468L30.7706 85.9758H38.6357L41.4884 132.849C41.5176 133.331 41.5625 133.783 41.6222 134.206H36.9762ZM51.337 134.206H46.4992C46.4167 133.821 46.3355 133.29 46.2932 132.595L43.4562 85.9758H51.1692C51.1721 85.9758 51.175 85.9764 51.1778 85.9764C51.182 85.9764 51.1859 85.9758 51.19 85.9758H51.337V134.206V134.206ZM61.1936 132.595C61.1513 133.29 61.0701 133.822 60.9876 134.206H56.1498V85.9758H64.0306L61.1936 132.595ZM70.5109 134.206H65.8646C65.9246 133.783 65.9692 133.331 65.9984 132.849L68.8511 85.9758H76.7165L71.0576 132.468C70.9447 133.397 70.6787 133.952 70.5109 134.206ZM79.5471 134.206H75.6124C75.7113 133.815 75.7876 133.404 75.8399 132.976L81.5601 85.9758H89.3944L80.929 132.345C80.7076 133.559 79.9841 134.206 79.5471 134.206ZM90.8074 132.224C90.5235 133.391 89.4297 134.206 88.1479 134.206H85.3853C85.505 133.851 85.6035 133.483 85.6734 133.1L94.2768 85.9758H99.3771C99.379 85.9758 99.381 85.9761 99.3832 85.9761C99.3858 85.9761 99.388 85.9758 99.3906 85.9758H102.066L90.8074 132.224ZM98.4697 81.4823H61.5716C66.9821 78.8428 73.9905 75.1441 80.5947 70.8183C81.6827 70.1057 81.9458 68.7046 81.1825 67.6887C80.4192 66.6729 78.9185 66.4273 77.8305 67.1399C66.3677 74.6486 53.2425 80.3805 50.6577 81.4823H10.1805C7.78914 79.0717 6.81503 75.7438 7.69866 72.7895C8.69908 69.4448 11.9301 67.1028 16.7965 66.1939C21.3673 65.3404 33.4536 62.9646 46.9355 59.3452C48.2125 59.0022 48.9505 57.7575 48.5831 56.5649C48.2157 55.3726 46.8839 54.683 45.6053 55.0266C33.588 58.253 22.6963 60.4779 17.373 61.4997C16.6373 57.8015 16.1512 49.7956 24.572 46.4261C27.8219 45.1256 34.4081 44.0058 41.3809 42.8205L43.7103 42.4235C45.0175 42.1995 45.8828 41.0287 45.6428 39.8083C45.4028 38.5876 44.1489 37.7799 42.8417 38.004L40.5188 38.4C36.0162 39.1654 31.6699 39.9048 28.1236 40.7145C28.4508 35.479 30.8261 26.2325 42.4118 19.3272C43.2813 20.5398 44.216 21.5386 44.9587 22.2537C45.4772 22.7527 45.9197 23.1437 46.3063 23.4576C46.2409 23.9687 46.2033 24.4872 46.2033 25.0145C46.2033 32.1999 52.4645 38.0457 60.1605 38.0457C64.6829 38.0457 68.7083 36.0254 71.2604 32.9024C76.0065 33.8448 79.9337 34.9349 83.1053 36.2084C83.7069 37.0583 83.6245 37.6691 83.4579 38.1571C82.8602 39.9057 79.1322 44.714 57.4781 51.575C56.2197 51.9737 55.5456 53.2496 55.9727 54.4245C56.3128 55.3604 57.2484 55.9499 58.2514 55.9499C58.5077 55.9499 58.7686 55.9113 59.025 55.8301C66.7864 53.3709 73.0828 50.9151 77.7394 48.5308C83.6325 45.5133 87.0031 42.5667 88.0433 39.5231C88.12 39.2987 88.1812 39.0747 88.2326 38.8503C91.1912 40.8565 92.9026 43.2219 93.5116 46.0306C94.3968 50.1137 92.4088 54.6219 87.6034 59.43C86.6966 60.3371 86.7493 61.7588 87.7211 62.6054C88.1851 63.0095 88.7742 63.2096 89.3623 63.2096C90.0059 63.2096 90.6483 62.97 91.1222 62.4957C92.9196 60.6974 94.3898 58.9072 95.5349 57.1299C101.297 61.6462 104.259 66.1711 104.336 70.5904C104.422 75.4937 100.954 79.3533 98.4697 81.4823Z" fill="#670000"/>
</svg>
