<svg width="110" height="139" viewBox="0 0 110 139" fill="none" xmlns="http://www.w3.org/2000/svg">
<path d="M108.286 41.6359C107.575 40.5733 106.535 39.9644 105.43 39.9644H80.8796V32.6979C80.8796 14.6669 69.155 0 54.7455 0C40.1462 0 28.2695 14.8597 28.2695 33.1258V39.9644H3.72126C2.61457 39.9644 1.57364 40.5756 0.865284 41.6382C0.156927 42.7008 -0.136186 44.0925 0.0592225 45.4301L2.54693 63.4729L6.43444 91.6831H6.43632L9.02924 110.49H9.0236L11.9472 131.694C12.6443 135.752 15.5585 138.7 18.8748 138.7H90.2742C93.5943 138.7 96.5066 135.752 97.2019 131.692L97.2131 131.61C97.2131 131.605 97.215 131.603 97.215 131.6L104.43 79.2424L106.606 63.4729L109.09 45.4513C109.287 44.0901 108.994 42.6984 108.286 41.6359ZM32.0274 33.1258C32.0274 17.4527 42.2187 4.70169 54.7455 4.70169C67.0845 4.70169 77.1217 17.2623 77.1217 32.6979V39.9644H71.4849V42.3153C71.4849 53.9214 63.8978 63.36 54.5745 63.36C45.2513 63.36 37.6642 53.919 37.6642 42.3153V39.9644H32.0274V33.1258ZM101.935 69.6932L99.5524 86.9814H92.1532H80.8796H69.606H58.3324H47.0588H35.7852H24.5116H13.238H9.59856L8.57266 79.5409C9.10628 79.1272 9.48018 78.4219 9.48018 77.578C9.48018 76.4519 8.83571 75.5562 7.99019 75.3259L7.00563 68.1746H13.238H24.5116H35.7852H47.0588H58.3324H69.606H80.8796H92.1532H102.143L101.935 69.6932ZM3.72126 44.6661H33.9927C34.562 52.4615 37.9441 59.2414 42.8462 63.4729H6.3217L3.72126 44.6661ZM10.2242 91.6831H98.9042L96.3131 110.49H12.8266L10.2242 91.6831ZM18.8748 133.998C17.3172 133.998 15.9493 132.614 15.6356 130.801L13.7886 117.404C14.5533 117.105 15.117 116.245 15.117 115.192H22.6327C22.6327 116.489 23.4745 117.542 24.5116 117.542C25.5488 117.542 26.3906 116.489 26.3906 115.192H33.9063C33.9063 116.489 34.7481 117.542 35.7852 117.542C36.8224 117.542 37.6642 116.489 37.6642 115.192H45.1799C45.1799 116.489 46.0216 117.542 47.0588 117.542C48.096 117.542 48.9377 116.489 48.9377 115.192H56.4535C56.4535 116.489 57.2952 117.542 58.3324 117.542C59.3696 117.542 60.2113 116.489 60.2113 115.192H67.7271C67.7271 116.489 68.5688 117.542 69.606 117.542C70.6432 117.542 71.4849 116.489 71.4849 115.192H79.0006C79.0006 116.489 79.8424 117.542 80.8796 117.542C81.9167 117.542 82.7585 116.489 82.7585 115.192H90.2742C90.2742 116.489 91.116 117.542 92.1532 117.542C93.1903 117.542 94.0321 116.489 94.0321 115.192H95.6649L93.8555 128.326C93.5586 127.515 92.9123 126.946 92.1532 126.946C91.116 126.946 90.2742 127.999 90.2742 129.297C90.2742 130.594 91.116 131.647 92.1532 131.647C92.6511 131.647 93.0964 131.396 93.4308 131.001C93.3895 131.175 93.3294 131.332 93.2711 131.497C93.2072 131.676 93.1734 131.875 93.0908 132.04C92.9724 132.275 92.8052 132.456 92.6548 132.656C92.5515 132.792 92.4726 132.957 92.3561 133.074C92.1626 133.27 91.9333 133.394 91.7097 133.533C91.6008 133.601 91.5068 133.704 91.3922 133.756C91.039 133.911 90.6632 133.998 90.2742 133.998H18.8748ZM66.3028 63.4729C71.205 59.2414 74.5889 52.4615 75.1563 44.6661H105.383L102.792 63.4729H66.3028Z" fill="#670000"/>
<path d="M18.8748 124.595C19.9125 124.595 20.7538 123.542 20.7538 122.244C20.7538 120.946 19.9125 119.893 18.8748 119.893C17.8371 119.893 16.9959 120.946 16.9959 122.244C16.9959 123.542 17.8371 124.595 18.8748 124.595Z" fill="#670000"/>
<path d="M24.5117 131.647C25.5494 131.647 26.3906 130.595 26.3906 129.297C26.3906 127.998 25.5494 126.946 24.5117 126.946C23.474 126.946 22.6328 127.998 22.6328 129.297C22.6328 130.595 23.474 131.647 24.5117 131.647Z" fill="#670000"/>
<path d="M30.1485 124.595C31.1862 124.595 32.0274 123.542 32.0274 122.244C32.0274 120.946 31.1862 119.893 30.1485 119.893C29.1108 119.893 28.2695 120.946 28.2695 122.244C28.2695 123.542 29.1108 124.595 30.1485 124.595Z" fill="#670000"/>
<path d="M41.422 124.595C42.4597 124.595 43.301 123.542 43.301 122.244C43.301 120.946 42.4597 119.893 41.422 119.893C40.3843 119.893 39.5431 120.946 39.5431 122.244C39.5431 123.542 40.3843 124.595 41.422 124.595Z" fill="#670000"/>
<path d="M35.7852 131.647C36.8229 131.647 37.6642 130.595 37.6642 129.297C37.6642 127.998 36.8229 126.946 35.7852 126.946C34.7475 126.946 33.9063 127.998 33.9063 129.297C33.9063 130.595 34.7475 131.647 35.7852 131.647Z" fill="#670000"/>
<path d="M47.0589 131.647C48.0966 131.647 48.9378 130.595 48.9378 129.297C48.9378 127.998 48.0966 126.946 47.0589 126.946C46.0212 126.946 45.1799 127.998 45.1799 129.297C45.1799 130.595 46.0212 131.647 47.0589 131.647Z" fill="#670000"/>
<path d="M52.6956 124.595C53.7333 124.595 54.5746 123.542 54.5746 122.244C54.5746 120.946 53.7333 119.893 52.6956 119.893C51.6579 119.893 50.8167 120.946 50.8167 122.244C50.8167 123.542 51.6579 124.595 52.6956 124.595Z" fill="#670000"/>
<path d="M63.9692 124.595C65.0069 124.595 65.8481 123.542 65.8481 122.244C65.8481 120.946 65.0069 119.893 63.9692 119.893C62.9315 119.893 62.0903 120.946 62.0903 122.244C62.0903 123.542 62.9315 124.595 63.9692 124.595Z" fill="#670000"/>
<path d="M58.3324 131.647C59.3701 131.647 60.2114 130.595 60.2114 129.297C60.2114 127.998 59.3701 126.946 58.3324 126.946C57.2947 126.946 56.4535 127.998 56.4535 129.297C56.4535 130.595 57.2947 131.647 58.3324 131.647Z" fill="#670000"/>
<path d="M69.606 131.647C70.6437 131.647 71.4849 130.595 71.4849 129.297C71.4849 127.998 70.6437 126.946 69.606 126.946C68.5683 126.946 67.7271 127.998 67.7271 129.297C67.7271 130.595 68.5683 131.647 69.606 131.647Z" fill="#670000"/>
<path d="M75.2428 124.595C76.2805 124.595 77.1218 123.542 77.1218 122.244C77.1218 120.946 76.2805 119.893 75.2428 119.893C74.2051 119.893 73.3639 120.946 73.3639 122.244C73.3639 123.542 74.2051 124.595 75.2428 124.595Z" fill="#670000"/>
<path d="M86.5164 124.595C87.5541 124.595 88.3953 123.542 88.3953 122.244C88.3953 120.946 87.5541 119.893 86.5164 119.893C85.4787 119.893 84.6375 120.946 84.6375 122.244C84.6375 123.542 85.4787 124.595 86.5164 124.595Z" fill="#670000"/>
<path d="M80.8796 131.647C81.9173 131.647 82.7585 130.595 82.7585 129.297C82.7585 127.998 81.9173 126.946 80.8796 126.946C79.8419 126.946 79.0007 127.998 79.0007 129.297C79.0007 130.595 79.8419 131.647 80.8796 131.647Z" fill="#670000"/>
<path d="M13.2381 72.8763C14.2758 72.8763 15.117 71.8237 15.117 70.5254C15.117 69.2271 14.2758 68.1746 13.2381 68.1746C12.2004 68.1746 11.3591 69.2271 11.3591 70.5254C11.3591 71.8237 12.2004 72.8763 13.2381 72.8763Z" fill="#670000"/>
<path d="M24.5117 72.8763C25.5494 72.8763 26.3906 71.8237 26.3906 70.5254C26.3906 69.2271 25.5494 68.1746 24.5117 68.1746C23.474 68.1746 22.6328 69.2271 22.6328 70.5254C22.6328 71.8237 23.474 72.8763 24.5117 72.8763Z" fill="#670000"/>
<path d="M35.7852 72.8763C36.8229 72.8763 37.6642 71.8237 37.6642 70.5254C37.6642 69.2271 36.8229 68.1746 35.7852 68.1746C34.7475 68.1746 33.9063 69.2271 33.9063 70.5254C33.9063 71.8237 34.7475 72.8763 35.7852 72.8763Z" fill="#670000"/>
<path d="M47.0589 72.8763C48.0966 72.8763 48.9378 71.8237 48.9378 70.5254C48.9378 69.2271 48.0966 68.1746 47.0589 68.1746C46.0212 68.1746 45.1799 69.2271 45.1799 70.5254C45.1799 71.8237 46.0212 72.8763 47.0589 72.8763Z" fill="#670000"/>
<path d="M58.3324 72.8763C59.3701 72.8763 60.2114 71.8237 60.2114 70.5254C60.2114 69.2271 59.3701 68.1746 58.3324 68.1746C57.2947 68.1746 56.4535 69.2271 56.4535 70.5254C56.4535 71.8237 57.2947 72.8763 58.3324 72.8763Z" fill="#670000"/>
<path d="M69.606 72.8763C70.6437 72.8763 71.4849 71.8237 71.4849 70.5254C71.4849 69.2271 70.6437 68.1746 69.606 68.1746C68.5683 68.1746 67.7271 69.2271 67.7271 70.5254C67.7271 71.8237 68.5683 72.8763 69.606 72.8763Z" fill="#670000"/>
<path d="M80.8796 72.8763C81.9173 72.8763 82.7585 71.8237 82.7585 70.5254C82.7585 69.2271 81.9173 68.1746 80.8796 68.1746C79.8419 68.1746 79.0007 69.2271 79.0007 70.5254C79.0007 71.8237 79.8419 72.8763 80.8796 72.8763Z" fill="#670000"/>
<path d="M92.1532 72.8763C93.1909 72.8763 94.0321 71.8237 94.0321 70.5254C94.0321 69.2271 93.1909 68.1746 92.1532 68.1746C91.1155 68.1746 90.2742 69.2271 90.2742 70.5254C90.2742 71.8237 91.1155 72.8763 92.1532 72.8763Z" fill="#670000"/>
<path d="M18.8748 79.9288C19.9125 79.9288 20.7538 78.8763 20.7538 77.578C20.7538 76.2796 19.9125 75.2271 18.8748 75.2271C17.8371 75.2271 16.9959 76.2796 16.9959 77.578C16.9959 78.8763 17.8371 79.9288 18.8748 79.9288Z" fill="#670000"/>
<path d="M13.2381 86.9814C14.2758 86.9814 15.117 85.9288 15.117 84.6305C15.117 83.3322 14.2758 82.2797 13.2381 82.2797C12.2004 82.2797 11.3591 83.3322 11.3591 84.6305C11.3591 85.9288 12.2004 86.9814 13.2381 86.9814Z" fill="#670000"/>
<path d="M24.5117 86.9814C25.5494 86.9814 26.3906 85.9288 26.3906 84.6305C26.3906 83.3322 25.5494 82.2797 24.5117 82.2797C23.474 82.2797 22.6328 83.3322 22.6328 84.6305C22.6328 85.9288 23.474 86.9814 24.5117 86.9814Z" fill="#670000"/>
<path d="M30.1485 79.9288C31.1862 79.9288 32.0274 78.8763 32.0274 77.578C32.0274 76.2796 31.1862 75.2271 30.1485 75.2271C29.1108 75.2271 28.2695 76.2796 28.2695 77.578C28.2695 78.8763 29.1108 79.9288 30.1485 79.9288Z" fill="#670000"/>
<path d="M41.422 79.9288C42.4597 79.9288 43.301 78.8763 43.301 77.578C43.301 76.2796 42.4597 75.2271 41.422 75.2271C40.3843 75.2271 39.5431 76.2796 39.5431 77.578C39.5431 78.8763 40.3843 79.9288 41.422 79.9288Z" fill="#670000"/>
<path d="M35.7852 86.9814C36.8229 86.9814 37.6642 85.9288 37.6642 84.6305C37.6642 83.3322 36.8229 82.2797 35.7852 82.2797C34.7475 82.2797 33.9063 83.3322 33.9063 84.6305C33.9063 85.9288 34.7475 86.9814 35.7852 86.9814Z" fill="#670000"/>
<path d="M47.0589 86.9814C48.0966 86.9814 48.9378 85.9288 48.9378 84.6305C48.9378 83.3322 48.0966 82.2797 47.0589 82.2797C46.0212 82.2797 45.1799 83.3322 45.1799 84.6305C45.1799 85.9288 46.0212 86.9814 47.0589 86.9814Z" fill="#670000"/>
<path d="M52.6956 79.9288C53.7333 79.9288 54.5746 78.8763 54.5746 77.578C54.5746 76.2796 53.7333 75.2271 52.6956 75.2271C51.6579 75.2271 50.8167 76.2796 50.8167 77.578C50.8167 78.8763 51.6579 79.9288 52.6956 79.9288Z" fill="#670000"/>
<path d="M63.9692 79.9288C65.0069 79.9288 65.8481 78.8763 65.8481 77.578C65.8481 76.2796 65.0069 75.2271 63.9692 75.2271C62.9315 75.2271 62.0903 76.2796 62.0903 77.578C62.0903 78.8763 62.9315 79.9288 63.9692 79.9288Z" fill="#670000"/>
<path d="M58.3324 86.9814C59.3701 86.9814 60.2114 85.9288 60.2114 84.6305C60.2114 83.3322 59.3701 82.2797 58.3324 82.2797C57.2947 82.2797 56.4535 83.3322 56.4535 84.6305C56.4535 85.9288 57.2947 86.9814 58.3324 86.9814Z" fill="#670000"/>
<path d="M69.606 86.9814C70.6437 86.9814 71.4849 85.9288 71.4849 84.6305C71.4849 83.3322 70.6437 82.2797 69.606 82.2797C68.5683 82.2797 67.7271 83.3322 67.7271 84.6305C67.7271 85.9288 68.5683 86.9814 69.606 86.9814Z" fill="#670000"/>
<path d="M75.2428 79.9288C76.2805 79.9288 77.1218 78.8763 77.1218 77.578C77.1218 76.2796 76.2805 75.2271 75.2428 75.2271C74.2051 75.2271 73.3639 76.2796 73.3639 77.578C73.3639 78.8763 74.2051 79.9288 75.2428 79.9288Z" fill="#670000"/>
<path d="M86.5164 79.9288C87.5541 79.9288 88.3953 78.8763 88.3953 77.578C88.3953 76.2796 87.5541 75.2271 86.5164 75.2271C85.4787 75.2271 84.6375 76.2796 84.6375 77.578C84.6375 78.8763 85.4787 79.9288 86.5164 79.9288Z" fill="#670000"/>
<path d="M80.8796 86.9814C81.9173 86.9814 82.7585 85.9288 82.7585 84.6305C82.7585 83.3322 81.9173 82.2797 80.8796 82.2797C79.8419 82.2797 79.0007 83.3322 79.0007 84.6305C79.0007 85.9288 79.8419 86.9814 80.8796 86.9814Z" fill="#670000"/>
<path d="M92.1532 86.9814C93.1909 86.9814 94.0321 85.9288 94.0321 84.6305C94.0321 83.3322 93.1909 82.2797 92.1532 82.2797C91.1155 82.2797 90.2742 83.3322 90.2742 84.6305C90.2742 85.9288 91.1155 86.9814 92.1532 86.9814Z" fill="#670000"/>
<path d="M97.79 79.9288C98.8277 79.9288 99.6689 78.8763 99.6689 77.578C99.6689 76.2796 98.8277 75.2271 97.79 75.2271C96.7523 75.2271 95.9111 76.2796 95.9111 77.578C95.9111 78.8763 96.7523 79.9288 97.79 79.9288Z" fill="#670000"/>
</svg>
