<svg width="110" height="139" viewBox="0 0 110 139" fill="none" xmlns="http://www.w3.org/2000/svg">
<path d="M105.71 72.3684C107.962 67.8118 109.15 62.5464 109.15 57.1423C109.15 45.2706 103.407 34.262 94.5184 29.0993C91.2385 27.1935 88.7117 23.5103 87.7584 19.2491C85.3316 8.38436 79.8123 2.20711 70.8838 0.362921C63.4562 -1.17048 56.4815 2.22509 52.6831 9.22683C51.1823 11.9957 47.7495 13.1078 44.3531 11.9366C41.6644 11.0119 38.8665 10.5214 36.0359 10.488C35.934 10.488 35.8358 10.4854 35.7339 10.4854C23.1744 10.4854 12.8033 19.9683 11.0151 33.1447C10.3929 37.727 10.7749 42.304 12.1539 46.7501C13.7838 52.0181 12.303 57.6971 8.18625 61.9402C2.90885 67.3829 0 74.5876 0 82.2263C0 92.3616 10.4075 99.5765 19.1376 103.843C24.5169 106.468 28.0534 111.535 28.8392 117.7L28.8847 118.057C30.5565 130.188 39.5978 138.7 50.5947 138.7C50.964 138.7 51.3351 138.69 51.7098 138.669C60.0561 138.238 68.0514 133.252 73.1032 125.334C74.6586 122.896 77.1654 121.537 79.3575 121.989C83.1559 122.755 87.0271 122.346 90.8728 120.754C99.7795 117.073 106.572 107.015 107.78 95.7238C108.399 89.9395 107.622 84.2734 105.534 79.3393C104.604 77.1406 104.671 74.4694 105.71 72.3684ZM104.182 94.9558C103.183 104.31 97.4237 112.694 89.8505 115.822C86.5123 117.204 83.1505 117.571 79.8778 116.904H79.876C76.496 116.218 72.7739 118.18 70.4017 121.897C65.9976 128.801 58.961 133.155 51.577 133.537C41.9409 134.069 33.842 127.116 32.4266 116.832C31.397 108.744 26.9873 102.238 20.3292 98.9858C9.87808 93.8822 3.63833 87.615 3.63833 82.2263C3.63833 76.2725 6.01598 70.5396 10.3329 66.091C15.8413 60.4094 17.8151 52.2107 15.4866 44.6927C14.4078 41.2175 14.1058 37.6602 14.5897 34.1156C16.0469 23.3587 24.9153 15.625 35.7284 15.625C35.8212 15.625 35.9122 15.6275 36.0031 15.6275C38.5536 15.6609 41.0731 16.1001 43.4908 16.9323C48.3225 18.5967 53.1797 16.7577 55.5719 12.3578C58.5663 6.83555 64.2239 4.19513 70.3581 5.45113C77.8712 7.0025 82.2973 11.8801 84.2875 20.8005C85.5609 26.5 88.8699 31.3776 93.1341 33.8562C100.653 38.2227 105.512 47.3666 105.512 57.1474C105.512 61.4959 104.549 65.7442 102.727 69.4326C100.858 73.2185 100.736 78.0242 102.41 81.9771C104.06 85.871 104.673 90.3607 104.182 94.9558Z" fill="#670000"/>
<path d="M68.2187 35.9598C54.6768 35.9598 43.66 51.5121 43.66 70.6346C43.66 89.7572 54.6768 105.309 68.2187 105.309C81.7606 105.309 92.7775 89.7546 92.7775 70.6346C92.7775 51.5147 81.7606 35.9598 68.2187 35.9598ZM68.2187 100.172C56.6834 100.172 47.2983 86.9215 47.2983 70.6346C47.2983 54.3478 56.6834 41.0968 68.2187 41.0968C79.7541 41.0968 89.1391 54.3478 89.1391 70.6346C89.1391 86.9215 79.7541 100.172 68.2187 100.172Z" fill="#670000"/>
<path d="M68.2188 46.2339C66.4869 46.2339 64.7751 46.596 63.136 47.3075C62.1755 47.7262 61.637 49.1645 61.9318 50.5181C62.1737 51.6226 62.8923 52.3315 63.6709 52.3315C63.8473 52.3315 64.0274 52.2956 64.2057 52.2185C65.4991 51.656 66.849 51.3709 68.2188 51.3709C69.2248 51.3709 70.038 50.2228 70.038 48.8024C70.038 47.382 69.2248 46.2339 68.2188 46.2339Z" fill="#670000"/>
<path d="M57.0836 51.9745C53.176 56.6261 50.9366 63.4249 50.9366 70.6347C50.9366 72.0551 51.7498 73.2032 52.7558 73.2032C53.7618 73.2032 54.575 72.0551 54.575 70.6347C54.575 64.9429 56.345 59.5747 59.4285 55.9043C60.1962 54.9899 60.2944 53.3692 59.6468 52.2853C58.9992 51.1988 57.8531 51.0601 57.0836 51.9745Z" fill="#670000"/>
<path d="M30.1818 24.6404C29.7725 23.3459 28.701 22.7654 27.7805 23.3356C23.9439 25.7474 20.8167 29.5205 18.49 34.5548C17.9388 35.744 18.1771 37.3339 19.0176 38.1096C19.3232 38.3922 19.6688 38.5283 20.009 38.5283C20.6021 38.5283 21.1842 38.1199 21.5335 37.3648C23.4709 33.173 26.0705 30.0343 29.2577 28.0308C30.1763 27.4529 30.5875 25.9324 30.1818 24.6404Z" fill="#670000"/>
<path d="M35.7484 25.6729C38.0933 25.357 39.7306 25.6549 39.7706 25.6601C39.8561 25.6781 39.9398 25.6858 40.0235 25.6858C40.9149 25.6858 41.6953 24.7611 41.8226 23.4769C41.9627 22.0719 41.2696 20.7722 40.2745 20.5744C40.1908 20.559 38.217 20.1789 35.3955 20.5616C34.395 20.6977 33.6637 21.9537 33.7619 23.3664C33.8583 24.7765 34.737 25.8065 35.7484 25.6729Z" fill="#670000"/>
<path d="M47.0728 120.523L46.8018 120.566C42.5631 121.221 38.6974 117.14 37.977 111.255C37.806 109.856 36.8637 108.931 35.8758 109.162C34.8844 109.404 34.2222 110.732 34.3932 112.129C35.3647 120.076 40.2855 125.773 45.9158 125.773C46.3488 125.773 46.7872 125.739 47.2293 125.67L47.5258 125.621C48.5227 125.446 49.2304 124.162 49.1048 122.755C48.9793 121.347 48.0806 120.345 47.0728 120.523Z" fill="#670000"/>
<path d="M35.4392 107.498C36.296 106.758 36.5652 105.179 36.0395 103.966C34.2549 99.8463 31.9718 97.8455 31.8736 97.7633C31.0204 97.0133 29.898 97.4037 29.3741 98.6134C28.8483 99.8232 29.1176 101.403 29.9762 102.143C29.9926 102.158 31.6244 103.622 32.9378 106.65C33.2816 107.441 33.8783 107.878 34.4914 107.878C34.8152 107.878 35.1426 107.755 35.4392 107.498Z" fill="#670000"/>
</svg>
