<svg width="200" height="200" viewBox="0 0 200 200" fill="none" xmlns="http://www.w3.org/2000/svg">
<circle cx="100" cy="100" r="100" fill="#470000"/>
<path d="M45.6821 132V127.471L52.0483 126.695V101.178H45.6045V96.8564L59.5791 94.3203V126.695L65.9453 127.471V132H45.6821ZM80.4116 132.543C79.1004 132.543 77.7461 132.405 76.3486 132.129C74.9684 131.871 73.6917 131.482 72.5186 130.965L73.3726 125.504C75.5981 126.333 77.841 126.747 80.1011 126.747C82.2922 126.747 84.0174 125.996 85.2769 124.495C86.5363 122.994 87.1833 120.656 87.2178 117.482L87.166 116.913C85.458 119.121 83.1462 120.225 80.2305 120.225C76.8835 120.225 74.1834 119.078 72.1304 116.783C70.0946 114.471 69.0767 111.288 69.0767 107.234C69.0767 104.698 69.6201 102.412 70.707 100.376C71.8112 98.3402 73.3122 96.7357 75.21 95.5625C77.125 94.3721 79.2988 93.7769 81.7314 93.7769C84.3021 93.7769 86.5622 94.3721 88.5117 95.5625C90.4613 96.7529 91.9795 98.4782 93.0664 100.738C94.1533 102.998 94.6968 105.724 94.6968 108.916V117.094C94.6968 120.354 94.0843 123.141 92.8594 125.453C91.6517 127.747 89.9696 129.507 87.813 130.732C85.6737 131.94 83.2065 132.543 80.4116 132.543ZM81.8608 114.687C82.9995 114.687 84.026 114.454 84.9404 113.988C85.8721 113.505 86.6139 112.867 87.166 112.073V108.036C87.166 105.276 86.6829 103.18 85.7168 101.748C84.7507 100.316 83.4395 99.5996 81.7832 99.5996C80.7653 99.5996 79.8682 99.9447 79.0918 100.635C78.3327 101.308 77.7288 102.231 77.2803 103.404C76.849 104.56 76.6333 105.836 76.6333 107.234C76.6333 109.511 77.0646 111.323 77.9272 112.668C78.8071 114.014 80.1183 114.687 81.8608 114.687ZM109.965 132.543C108.654 132.543 107.3 132.405 105.902 132.129C104.522 131.871 103.245 131.482 102.072 130.965L102.926 125.504C105.152 126.333 107.395 126.747 109.655 126.747C111.846 126.747 113.571 125.996 114.831 124.495C116.09 122.994 116.737 120.656 116.771 117.482L116.72 116.913C115.012 119.121 112.7 120.225 109.784 120.225C106.437 120.225 103.737 119.078 101.684 116.783C99.6483 114.471 98.6304 111.288 98.6304 107.234C98.6304 104.698 99.1738 102.412 100.261 100.376C101.365 98.3402 102.866 96.7357 104.764 95.5625C106.679 94.3721 108.853 93.7769 111.285 93.7769C113.856 93.7769 116.116 94.3721 118.065 95.5625C120.015 96.7529 121.533 98.4782 122.62 100.738C123.707 102.998 124.25 105.724 124.25 108.916V117.094C124.25 120.354 123.638 123.141 122.413 125.453C121.205 127.747 119.523 129.507 117.367 130.732C115.227 131.94 112.76 132.543 109.965 132.543ZM111.415 114.687C112.553 114.687 113.58 114.454 114.494 113.988C115.426 113.505 116.168 112.867 116.72 112.073V108.036C116.72 105.276 116.237 103.18 115.271 101.748C114.304 100.316 112.993 99.5996 111.337 99.5996C110.319 99.5996 109.422 99.9447 108.646 100.635C107.886 101.308 107.283 102.231 106.834 103.404C106.403 104.56 106.187 105.836 106.187 107.234C106.187 109.511 106.618 111.323 107.481 112.668C108.361 114.014 109.672 114.687 111.415 114.687ZM135.094 132L135.456 128.17C136.629 117.146 140.537 107.803 147.179 100.143H133.903L133.619 103.87H127.822V94.3203H154.451V100.143C152.433 102.507 150.75 104.767 149.405 106.923C148.076 109.063 146.998 111.219 146.17 113.393C145.359 115.55 144.712 117.836 144.229 120.251C143.746 122.649 143.34 125.289 143.013 128.17L142.65 132H135.094Z" fill="white"/>
<circle cx="100" cy="100" r="88.5" stroke="white" stroke-width="3" stroke-dasharray="6 6"/>
<path d="M75.5625 63.7031C75.5625 62.776 75.1875 62.0312 74.4375 61.4688C73.6979 60.9062 72.5781 60.4688 71.0781 60.1562C69.5781 59.8333 68.4115 59.4688 67.5781 59.0625C66.7552 58.6458 66.1406 58.1406 65.7344 57.5469C65.3385 56.9531 65.1406 56.2344 65.1406 55.3906C65.1406 54.0573 65.6979 52.9583 66.8125 52.0938C67.9271 51.2188 69.3542 50.7812 71.0938 50.7812C72.9792 50.7812 74.4896 51.25 75.625 52.1875C76.7708 53.1146 77.3438 54.3281 77.3438 55.8281H75.4688C75.4688 54.8385 75.0521 54.0156 74.2188 53.3594C73.3958 52.7031 72.3542 52.375 71.0938 52.375C69.8646 52.375 68.875 52.651 68.125 53.2031C67.3854 53.7448 67.0156 54.4531 67.0156 55.3281C67.0156 56.1719 67.3229 56.8281 67.9375 57.2969C68.5625 57.7552 69.6927 58.1771 71.3281 58.5625C72.974 58.9479 74.2031 59.3594 75.0156 59.7969C75.8385 60.2344 76.4479 60.7604 76.8438 61.375C77.2396 61.9896 77.4375 62.7344 77.4375 63.6094C77.4375 65.0365 76.8594 66.1771 75.7031 67.0312C74.5573 67.8854 73.0573 68.3125 71.2031 68.3125C69.2344 68.3125 67.6354 67.8385 66.4062 66.8906C65.1875 65.9323 64.5781 64.724 64.5781 63.2656H66.4531C66.526 64.3594 66.9844 65.2135 67.8281 65.8281C68.6823 66.4323 69.8073 66.7344 71.2031 66.7344C72.5052 66.7344 73.5573 66.4479 74.3594 65.875C75.1615 65.3021 75.5625 64.5781 75.5625 63.7031ZM83.75 68H81.875V51.0938H83.75V68ZM81.5469 46.2031C81.5469 45.849 81.6615 45.5521 81.8906 45.3125C82.1198 45.0625 82.4323 44.9375 82.8281 44.9375C83.224 44.9375 83.5365 45.0625 83.7656 45.3125C84.0052 45.5521 84.125 45.849 84.125 46.2031C84.125 46.5573 84.0052 46.8542 83.7656 47.0938C83.5365 47.3333 83.224 47.4531 82.8281 47.4531C82.4323 47.4531 82.1198 47.3333 81.8906 47.0938C81.6615 46.8542 81.5469 46.5573 81.5469 46.2031ZM90.625 51.0938L90.6875 53.9844C91.3229 52.9427 92.1146 52.151 93.0625 51.6094C94.0104 51.0573 95.0573 50.7812 96.2031 50.7812C98.0156 50.7812 99.3646 51.2917 100.25 52.3125C101.135 53.3333 101.583 54.8646 101.594 56.9062V68H99.7344V56.8906C99.724 55.3802 99.401 54.2552 98.7656 53.5156C98.1406 52.776 97.1354 52.4062 95.75 52.4062C94.5938 52.4062 93.5677 52.7708 92.6719 53.5C91.7865 54.2188 91.1302 55.1927 90.7031 56.4219V68H88.8438V51.0938H90.625ZM112.688 66.7344C113.99 66.7344 115.078 66.3698 115.953 65.6406C116.839 64.901 117.318 63.9479 117.391 62.7812H119.188C119.135 63.8125 118.812 64.7552 118.219 65.6094C117.625 66.4531 116.833 67.1146 115.844 67.5938C114.865 68.0729 113.812 68.3125 112.688 68.3125C110.469 68.3125 108.708 67.5417 107.406 66C106.115 64.4583 105.469 62.3854 105.469 59.7812V59.2188C105.469 57.5521 105.76 56.0781 106.344 54.7969C106.927 53.5156 107.76 52.526 108.844 51.8281C109.938 51.1302 111.214 50.7812 112.672 50.7812C114.526 50.7812 116.052 51.3333 117.25 52.4375C118.458 53.5417 119.104 54.9948 119.188 56.7969H117.391C117.307 55.474 116.828 54.4062 115.953 53.5938C115.089 52.7812 113.995 52.375 112.672 52.375C110.984 52.375 109.672 52.9844 108.734 54.2031C107.807 55.4219 107.344 57.1302 107.344 59.3281V59.875C107.344 62.0312 107.807 63.7135 108.734 64.9219C109.672 66.1302 110.99 66.7344 112.688 66.7344ZM129.484 68.3125C128.047 68.3125 126.745 67.9583 125.578 67.25C124.422 66.5417 123.521 65.5573 122.875 64.2969C122.229 63.026 121.906 61.6042 121.906 60.0312V59.3594C121.906 57.7344 122.219 56.2708 122.844 54.9688C123.479 53.6667 124.359 52.6458 125.484 51.9062C126.609 51.1562 127.828 50.7812 129.141 50.7812C131.193 50.7812 132.818 51.4844 134.016 52.8906C135.224 54.2865 135.828 56.1979 135.828 58.625V59.6719H123.766V60.0312C123.766 61.9479 124.312 63.5469 125.406 64.8281C126.51 66.099 127.896 66.7344 129.562 66.7344C130.562 66.7344 131.443 66.5521 132.203 66.1875C132.974 65.8229 133.672 65.2396 134.297 64.4375L135.469 65.3281C134.094 67.3177 132.099 68.3125 129.484 68.3125ZM129.141 52.375C127.734 52.375 126.547 52.8906 125.578 53.9219C124.62 54.9531 124.036 56.3385 123.828 58.0781H133.969V57.875C133.917 56.25 133.453 54.9271 132.578 53.9062C131.703 52.8854 130.557 52.375 129.141 52.375Z" fill="white"/>
</svg>
