<svg width="214" height="214" viewBox="0 0 214 214" fill="none" xmlns="http://www.w3.org/2000/svg">
<circle cx="107" cy="107" r="100" fill="#470000" stroke="white" stroke-width="13"/>
<path d="M54.3167 101.263C50.2878 101.825 47.1866 101.222 45.0131 99.454C42.8396 97.6857 41.4243 94.4483 40.767 89.742C40.2442 85.9983 40.3055 81.8823 40.9509 77.3939C41.632 72.9005 43.1489 68.9265 45.5018 65.4719C47.8852 61.9766 51.234 59.9277 55.5482 59.3253C58.2222 58.9518 60.4615 59.2389 62.2659 60.1864C64.0702 61.134 65.1417 62.82 65.4803 65.2445C65.6944 66.7776 65.5607 68.0321 65.079 69.0081C64.5924 69.9485 63.7073 70.5083 62.4238 70.6875C61.1402 70.8668 60.0594 70.5452 59.1812 69.7227C59.7781 69.3122 60.259 68.5908 60.6237 67.5584C60.9884 66.526 61.0986 65.4929 60.9542 64.4589C60.8197 63.4963 60.4428 62.7492 59.8233 62.2178C59.2395 61.6814 58.3772 61.4928 57.2362 61.6522C55.3466 61.9161 53.7278 63.4689 52.3799 66.3106C51.027 69.1167 50.0896 72.5554 49.5676 76.6267C49.0814 80.693 49.0922 84.5446 49.6001 88.1813C49.9785 90.891 50.7308 92.8942 51.8569 94.1909C52.9831 95.4876 54.7584 95.9667 57.1829 95.6281C59.2865 95.3343 61.1649 94.5994 62.8181 93.4235C64.4714 92.2475 65.8203 90.7142 66.8648 88.8236L68.1696 89.1866C67.5919 91.5573 66.5341 93.6134 64.9962 95.3548C63.4583 97.0962 61.7408 98.4629 59.8437 99.4548C57.9417 100.411 56.0994 101.014 54.3167 101.263ZM75.8906 97.5955C73.2522 97.964 71.0718 97.5779 69.3495 96.4371C67.6272 95.2964 66.5619 93.2642 66.1536 90.3405C65.815 87.9161 65.9382 85.1545 66.5233 82.0558C67.1083 78.9571 68.3568 76.1838 70.2686 73.7358C72.1754 71.2522 74.8045 69.7764 78.156 69.3084C82.7197 68.671 85.3999 71.2047 86.1966 76.9093L86.204 76.9628C86.316 76.9835 86.5146 76.974 86.7998 76.9341C87.9764 76.7698 89.2889 76.2776 90.7374 75.4573C92.1809 74.6015 93.4643 73.6407 94.5878 72.5751L95.2707 73.9519C94.3911 75.2015 93.1682 76.3356 91.602 77.354C90.0665 78.3317 88.3407 79.118 86.4245 79.7127C86.5924 82.9971 86.2573 85.9337 85.4193 88.5224C84.5813 91.1112 83.3274 93.1947 81.6576 94.7728C79.9878 96.3509 78.0655 97.2918 75.8906 97.5955ZM77.3577 92.4835C78.2134 92.364 79.0018 91.7632 79.7231 90.681C80.4394 89.5632 81.0014 88.1216 81.4092 86.3563C81.8119 84.5552 82.0115 82.6009 82.008 80.4931C81.0154 80.4136 80.4296 79.7321 80.2503 78.4485C80.0462 76.9867 80.4644 75.9469 81.5049 75.329C81.2693 74.1624 80.979 73.3851 80.634 72.9971C80.284 72.5734 79.7525 72.4114 79.0394 72.5109C77.8629 72.6753 76.8414 73.6903 75.9752 75.556C75.1089 77.4218 74.5038 79.5964 74.16 82.0798C73.8162 84.5632 73.7712 86.7141 74.0252 88.5324C74.2642 90.2438 74.6221 91.3752 75.0989 91.9266C75.5708 92.4423 76.3237 92.6279 77.3577 92.4835ZM88.5553 109.24C86.8796 109.474 85.3406 109.125 83.9383 108.194C82.5054 107.304 81.6719 106.021 81.4379 104.345C81.2238 102.812 81.4393 101.492 82.0842 100.384C82.7292 99.2759 83.6511 98.3292 84.85 97.5439C86.0183 96.7991 87.5915 95.9615 89.5698 95.0309L91.7229 63.597C91.958 60.0747 92.8748 57.5294 94.4733 55.9613C96.1074 54.3881 98.0119 53.4497 100.187 53.146C101.399 52.9767 102.564 53.1229 103.683 53.5846C104.837 54.0414 105.736 54.7519 106.38 55.7161C107.813 53.2259 110.099 51.7618 113.236 51.3236C114.912 51.0896 116.451 51.4381 117.853 52.3691C119.286 53.2595 120.12 54.5425 120.354 56.2182C120.468 57.0383 120.517 57.7767 120.499 58.4334L117.986 58.7844C117.947 57.9901 117.916 57.5037 117.891 57.3255C117.811 56.755 117.553 56.3367 117.116 56.0706C116.679 55.8045 116.175 55.7113 115.605 55.7909C113.858 56.0349 112.842 57.6125 112.558 60.5238L112.208 65.0437L117.556 64.2968L117.373 66.5033L112.079 67.2427L110.069 96.9664C109.833 100.489 108.899 103.037 107.265 104.61C105.666 106.178 103.78 107.114 101.605 107.417C98.681 107.826 96.5989 106.972 95.3582 104.855C93.9605 107.34 91.6929 108.802 88.5553 109.24ZM104.453 66.1266L104.772 61.7747L104.899 60.3394C104.891 59.7589 104.872 59.3618 104.842 59.1478C104.762 58.5774 104.504 58.1591 104.067 57.893C103.63 57.6269 103.126 57.5336 102.555 57.6133C100.808 57.8573 99.7928 59.4349 99.5088 62.3462L99.1585 66.866L104.453 66.1266ZM102.803 90.6203L104.324 68.3256L99.0294 69.065L97.4289 92.3522L102.803 90.6203ZM99.7099 102.829C100.352 102.74 100.91 102.316 101.386 101.559C101.867 100.838 102.166 99.7239 102.283 98.2173L102.715 91.9412L97.3482 93.7266L97.0192 98.7887C96.9239 99.9289 96.7371 101.064 96.4586 102.193C96.9504 102.851 98.0342 103.063 99.7099 102.829ZM86.9814 104.607C87.6232 104.517 88.182 104.094 88.6579 103.337C89.1387 102.615 89.4375 101.501 89.5542 99.9948L89.7628 96.8033C87.9628 97.7089 86.603 98.644 85.6836 99.6084C84.7691 100.609 84.4065 101.786 84.5957 103.141C84.6555 103.569 84.9241 103.931 85.4018 104.228C85.8844 104.56 86.4109 104.687 86.9814 104.607ZM126.406 90.6501C123.767 91.0185 121.623 90.6274 119.972 89.4767C118.316 88.2903 117.284 86.2353 116.875 83.3117C116.532 80.8516 116.635 78.0747 117.184 74.981C117.733 71.8872 118.946 69.1189 120.822 66.6759C122.693 64.1973 125.305 62.724 128.656 62.2559C132.578 61.7082 134.778 63.1458 135.256 66.5686C135.535 68.5652 135.221 70.481 134.314 72.3161C133.407 74.1512 132.081 75.7176 130.336 77.0155C128.586 78.2777 126.651 79.1295 124.531 79.5708C124.61 80.6504 124.673 81.3685 124.723 81.725C124.967 83.4721 125.437 84.6242 126.133 85.1813C126.824 85.7028 127.846 85.8689 129.201 85.6797C131.127 85.4108 132.704 84.7361 133.935 83.6555C135.201 82.57 136.527 81.0035 137.913 78.9561L139.731 78.7022C136.695 85.8509 132.253 89.8335 126.406 90.6501ZM124.601 76.944C125.91 76.6885 127.093 76.0507 128.15 75.0307C129.243 74.0057 130.054 72.7838 130.583 71.365C131.147 69.9413 131.327 68.4985 131.123 67.0367C130.919 65.5749 130.371 64.9062 129.48 65.0307C128.196 65.2099 127.088 66.5098 126.153 68.9303C125.255 71.3458 124.737 74.017 124.601 76.944ZM146.824 87.7986C144.222 88.1621 142.095 87.7685 140.444 86.6178C138.788 85.4314 137.756 83.3764 137.347 80.4528C137.004 77.9927 137.107 75.2157 137.656 72.122C138.205 69.0283 139.418 66.26 141.294 63.817C143.165 61.3384 145.777 59.865 149.128 59.397C153.05 58.8493 155.25 60.2868 155.728 63.7096C156.007 65.7063 155.693 67.6221 154.786 69.4572C153.879 71.2922 152.553 72.8587 150.808 74.1566C149.058 75.4188 147.123 76.2706 145.003 76.7119C145.042 77.5063 145.081 78.0461 145.121 78.3313C145.534 81.2906 146.846 82.6159 149.056 82.3072C150.055 82.1677 151.087 81.751 152.153 81.0568C153.219 80.3627 154.159 79.5409 154.971 78.5914C154.745 84.0026 152.03 87.0717 146.824 87.7986ZM145.019 74.0926C146.369 73.8677 147.573 73.2453 148.63 72.2252C149.722 71.2003 150.533 69.9784 151.062 68.5596C151.622 67.1002 151.799 65.6396 151.595 64.1778C151.391 62.7159 150.843 62.0473 149.952 62.1718C148.704 62.346 147.615 63.6612 146.686 66.1173C145.788 68.5328 145.232 71.1912 145.019 74.0926ZM58.8978 131.334C56.6484 132.666 55.0035 134.422 53.9632 136.603C52.9585 138.779 52.6528 141.275 53.0461 144.092C53.2304 145.411 53.4846 146.321 53.8089 146.821C54.1282 147.285 54.2928 147.553 54.3027 147.624C52.3774 147.893 50.8787 147.702 49.8065 147.053C48.7649 146.362 48.1147 145.09 47.8558 143.236C47.5371 140.954 48.1554 138.614 49.7107 136.216C51.2966 133.777 53.4593 131.694 56.1987 129.966C58.9331 128.203 61.7622 127.117 64.6858 126.709C65.1849 126.639 65.903 126.575 66.84 126.517L65.6428 142.933L73.5046 141.835L74.7017 125.419L82.4029 124.344L79.486 165.535L71.7848 166.611L73.255 145.904L65.3933 147.002L63.9231 167.709L56.2218 168.784L58.8978 131.334ZM94.2788 163.688C91.6404 164.056 89.46 163.67 87.7377 162.529C86.0153 161.388 84.95 159.356 84.5417 156.432C84.2032 154.008 84.3264 151.246 84.9114 148.148C85.4965 145.049 86.7449 142.276 88.6567 139.828C90.5635 137.344 93.1927 135.868 96.5442 135.4C101.108 134.763 103.788 137.297 104.585 143.001L104.592 143.055C104.704 143.075 104.903 143.066 105.188 143.026C106.365 142.862 107.677 142.37 109.126 141.549C110.569 140.693 111.852 139.733 112.976 138.667L113.659 140.044C112.779 141.293 111.556 142.428 109.99 143.446C108.455 144.424 106.729 145.21 104.813 145.805C104.981 149.089 104.645 152.026 103.807 154.614C102.969 157.203 101.716 159.287 100.046 160.865C98.376 162.443 96.4536 163.384 94.2788 163.688ZM95.7458 158.575C96.6015 158.456 97.39 157.855 98.1112 156.773C98.8275 155.655 99.3895 154.214 99.7973 152.448C100.2 150.647 100.4 148.693 100.396 146.585C99.4036 146.506 98.8177 145.824 98.6385 144.54C98.4343 143.079 98.8525 142.039 99.8931 141.421C99.6574 140.254 99.3671 139.477 99.0222 139.089C98.6722 138.665 98.1407 138.503 97.4276 138.603C96.251 138.767 95.2296 139.782 94.3633 141.648C93.497 143.514 92.892 145.688 92.5482 148.172C92.2043 150.655 92.1594 152.806 92.4133 154.624C92.6523 156.336 93.0102 157.467 93.4871 158.019C93.9589 158.534 94.7118 158.72 95.7458 158.575ZM115.282 160.863C113.571 161.102 112.106 160.762 110.887 159.841C109.704 158.916 108.963 157.384 108.664 155.245C108.539 154.353 108.52 153.175 108.606 151.709L109.845 134.033L117.547 132.958L116.235 151.679C116.203 152.229 116.219 152.736 116.284 153.199C116.488 154.661 117.125 155.317 118.195 155.168C119.193 155.028 119.991 154.499 120.59 153.579C121.184 152.624 121.592 151.386 121.816 149.864L123.055 132.189L130.756 131.113L129.445 149.835C129.377 150.389 129.386 150.97 129.47 151.576C129.57 152.289 129.803 152.783 130.168 153.06C130.565 153.295 131.155 153.358 131.939 153.248C132.938 153.109 133.734 152.562 134.327 151.606C134.956 150.646 135.385 149.423 135.614 147.937L137.86 147.623C137.079 151.658 135.805 154.508 134.038 156.172C132.302 157.796 130.453 158.745 128.492 159.019C126.959 159.233 125.669 158.977 124.623 158.25C123.612 157.519 122.9 156.328 122.488 154.677C121.55 156.808 120.453 158.324 119.198 159.226C117.978 160.123 116.673 160.669 115.282 160.863ZM143.086 156.981C141.375 157.22 139.886 157.1 138.62 156.623C137.349 156.11 136.356 155.376 135.641 154.422C134.921 153.432 134.481 152.366 134.322 151.225C134.158 150.049 134.301 148.993 134.752 148.057C135.162 147.091 135.732 146.358 136.462 145.856C137.504 143.166 138.365 140.483 139.046 137.807C139.721 135.096 140.316 132.196 140.829 129.107L148.595 126.932C149.411 131.471 150.404 136.366 151.573 141.619C152.05 143.733 152.356 145.272 152.49 146.235C152.605 147.055 152.628 147.742 152.56 148.297C154.102 147.1 155.261 146.029 156.038 145.085L158.284 144.771C156.37 147.728 153.954 150.338 151.035 152.599C150.155 153.849 148.986 154.848 147.528 155.597C146.1 156.305 144.619 156.766 143.086 156.981ZM140.785 152.995C142.104 152.81 143.155 152.264 143.936 151.355C144.718 150.446 144.987 149.118 144.743 147.371C144.594 146.301 144.278 144.819 143.795 142.923C142.871 138.909 142.258 136.213 141.957 134.838C141.495 137.774 140.521 141.345 139.037 145.551C139.916 145.864 140.414 146.431 140.528 147.251C140.623 147.928 140.476 148.567 140.087 149.166C139.734 149.761 139.218 150.105 138.541 150.2C137.792 150.305 137.278 150.14 137 149.706C137.179 150.99 137.561 151.9 138.144 152.436C138.764 152.968 139.644 153.154 140.785 152.995ZM164.951 153.927C162.349 154.291 160.222 153.897 158.571 152.746C156.915 151.56 155.883 149.505 155.474 146.581C155.131 144.121 155.234 141.344 155.783 138.25C156.332 135.157 157.545 132.388 159.421 129.945C161.292 127.467 163.904 125.993 167.255 125.525C171.177 124.978 173.377 126.415 173.855 129.838C174.134 131.835 173.82 133.751 172.913 135.586C172.006 137.421 170.68 138.987 168.935 140.285C167.185 141.547 165.25 142.399 163.13 142.84C163.169 143.635 163.208 144.174 163.248 144.46C163.661 147.419 164.973 148.744 167.183 148.436C168.182 148.296 169.214 147.879 170.28 147.185C171.346 146.491 172.286 145.669 173.098 144.72C172.872 150.131 170.157 153.2 164.951 153.927ZM163.146 140.221C164.496 139.996 165.7 139.374 166.757 138.354C167.849 137.329 168.66 136.107 169.189 134.688C169.749 133.229 169.926 131.768 169.722 130.306C169.518 128.844 168.97 128.176 168.079 128.3C166.831 128.474 165.742 129.79 164.813 132.246C163.915 134.661 163.359 137.32 163.146 140.221Z" fill="white"/>
<circle cx="106.5" cy="106.5" r="97.5" stroke="#727070" stroke-width="8" stroke-dasharray="6 6"/>
</svg>
