<svg width="110" height="139" viewBox="0 0 110 139" fill="none" xmlns="http://www.w3.org/2000/svg">
<path d="M47.574 75.7994C39.7706 75.7994 33.4237 86.1189 33.4237 98.8049C33.4237 111.491 39.7706 121.81 47.574 121.81C55.3773 121.81 61.7263 111.491 61.7263 98.8049C61.7263 86.1186 55.3773 75.7994 47.574 75.7994ZM47.574 114.417C42.28 114.417 37.9717 107.413 37.9717 98.8049C37.9717 90.1968 42.28 83.193 47.574 83.193C52.8704 83.193 57.1783 90.1968 57.1783 98.8049C57.1783 107.413 52.8702 114.417 47.574 114.417Z" fill="#670000"/>
<path d="M108.774 64.1988C107.302 50.9464 102.022 39.7538 94.8382 34.4233L94.8279 32.5254C94.8279 15.9596 78.1529 0 47.2276 0C22.1026 0 -0.104105 15.2958 0.000367143 33.9261L0.0558332 44.0903C0.0912513 50.1823 3.04053 55.1391 6.62889 55.1391C6.6358 55.1391 6.68013 55.1391 6.68659 55.1391L21.4497 54.9225C25.0695 54.8664 27.9873 49.8235 27.9541 43.6753C27.9252 38.6501 29.8061 33.7892 33.2459 29.9891C36.9699 25.8772 42.6183 23.4893 47.3583 23.4893C58.2177 23.4893 66.9267 32.2853 66.9869 43.0995C67.0203 49.1937 69.9671 54.1519 73.6156 54.1519L88.3787 53.9336C90.1619 53.9086 91.821 52.6937 93.0557 50.5129C94.2336 48.4289 94.8812 45.6977 94.8823 42.8138C99.7276 47.5902 103.226 55.8771 104.297 65.5126C105.547 76.7544 102.935 88.8751 97.6436 96.3899C94.8649 100.335 91.6488 102.066 86.3839 102.367C85.8487 96.755 84.3662 91.452 82.0696 87.0902L58.5037 51.0435V40.7439H53.9557V48.9442H41.1918V40.7439H36.6438V51.042C36.6438 51.042 17.8805 79.2751 13.251 86.8012C8.32094 94.8158 8.5388 108 8.5388 108C8.5388 124.927 17.0106 138.7 27.4235 138.7H67.7244C77.7765 138.7 86.0159 125.87 86.5784 109.757C91.3512 109.499 96.2845 108.137 100.637 101.958C107.106 92.7669 110.299 77.9458 108.774 64.1988ZM88.3391 46.5397L73.5601 46.7581C72.4544 46.7581 71.5349 45.0883 71.5349 43.0325C71.5349 26.6155 59.8837 16.0954 47.3183 16.0954C41.4322 16.0954 35.1489 18.9511 30.692 23.8735C25.9507 29.108 23.3636 36.1641 23.4059 43.7415C23.4171 45.8118 22.5198 47.5124 21.4074 47.5287L6.64471 47.7456H6.62912C5.52336 47.7456 4.61496 46.074 4.60383 44.0215L4.54836 33.8591C4.47953 21.6406 22.8671 7.39352 47.2677 7.39352C71.2105 7.39352 90.2802 19.2731 90.2802 32.5924L90.3356 42.7584C90.3354 44.5064 89.6117 46.5397 88.3391 46.5397ZM82.0634 108C82.0634 120.852 75.63 131.306 67.7244 131.306H27.4235C19.5177 131.306 13.0868 120.852 13.0868 108C13.0868 108 12.9358 98.4092 16.4577 92.0452L39.8192 56.3377H55.3288L78.6924 92.0452C82.3363 98.4186 82.0634 108 82.0634 108Z" fill="#670000"/>
</svg>
